<?xml version="1.0" encoding="UTF-8" standalone="no"?><!DOCTYPE svg PUBLIC "-//W3C//DTD SVG 1.1//EN" "http://www.w3.org/Graphics/SVG/1.1/DTD/svg11.dtd"><svg width="100%" height="100%" viewBox="0 0 512 512" version="1.1" xmlns="http://www.w3.org/2000/svg" xmlns:xlink="http://www.w3.org/1999/xlink" xml:space="preserve" xmlns:serif="http://www.serif.com/" style="fill-rule:evenodd;clip-rule:evenodd;stroke-linejoin:round;stroke-miterlimit:1.5;"><rect id="Artboard6" x="0" y="0" width="512" height="512" style="fill:none;"/><rect x="50.453" y="297.078" width="411.093" height="73.037" style="fill:#a6a6a6;fill-rule:nonzero;"/><clipPath id="_clip1"><rect x="50.453" y="297.078" width="411.093" height="73.037" clip-rule="nonzero"/></clipPath><g clip-path="url(#_clip1)"><path d="M223.53,297.078l0,22.973l206.583,0l0,-22.973" style="fill:#3a4652;stroke:#f2f2f2;stroke-width:10px;"/><rect x="237.554" y="297.078" width="176.485" height="10.906" style="fill:#f2f2f2;"/></g><rect x="50.453" y="297.078" width="411.093" height="73.037" style="fill:none;fill-rule:nonzero;stroke:#3a4652;stroke-width:10px;stroke-miterlimit:2;"/><path d="M138.546,285.314l-13.985,0l0,-126.333c0,-6.042 4.898,-10.941 10.941,-10.941c1.774,0 3.044,0 3.044,0l0,137.274Z" style="fill:#3a4652;fill-rule:nonzero;"/><path d="M149.567,285.314l-36.027,0l0,-10.984l36.027,0l0,10.984Z" style="fill:#3a4652;fill-rule:nonzero;"/><rect x="67.504" y="385.972" width="377.057" height="16.984" style="fill:#3a4652;fill-rule:nonzero;"/><path d="M171.614,256.104c0,0 0,0 -0.001,0c-12.142,-0.058 -22.038,-9.757 -22.34,-21.895c-0.914,-36.737 -2.758,-110.876 -3.749,-150.705c-0.175,-7.032 2.496,-13.837 7.408,-18.872c4.912,-5.036 11.648,-7.875 18.682,-7.875c0,0 0,0 0,0l0,199.347Z" style="fill:#3a4652;fill-rule:nonzero;"/><path d="M288.579,166.01l16.958,0l0,-6.009l-22.998,0l0,23.006l6.04,0l0,-16.997Z" style="fill:#3a4652;fill-rule:nonzero;"/><path d="M356.542,160.001l0,6.031l16.966,0l0,16.975l6.024,0l0,-23.006l-22.99,0Z" style="fill:#3a4652;fill-rule:nonzero;"/><path d="M372.55,250.004l-16.006,-0.006l0,6.106l22.024,-0.104l0,-22.013l-6.018,0.013l0,16.004Z" style="fill:#3a4652;fill-rule:nonzero;"/><path d="M288.556,233.987l-4.996,0l0,22.013l21.977,0l0,-4.994l-16.981,0l0,-17.019Z" style="fill:#3a4652;fill-rule:nonzero;"/><path d="M294.495,171.011l0,28.973l28.072,0l0,-16.974l5.988,0l0,-6.016l-5.988,0l0,-5.983l-28.072,0Zm22.064,22.959l-16.004,0l0,-16.981l16.004,0l0,16.981Z" style="fill:#3a4652;fill-rule:nonzero;"/><path d="M367.67,244.016l-0.187,-28.034l-10.867,0l0,-4.979l-6.097,0l0,4.949l-10.913,0l-0.054,12.044l-5.979,0l-0.019,5.005l5.857,0.018l0.187,10.997l28.072,0Zm-22.113,-21.973l15.925,0l0,16.843l-15.925,0l0,-16.843Z" style="fill:#3a4652;fill-rule:nonzero;"/><path d="M311.549,211.003l11.018,0l-0.023,-6.013l-28.073,0l0.024,6.013l11.042,0l0,5.007l-5.974,0l0,6.033l5.974,0l0,10.945l-4.982,0l0,6.008l4.982,0l0,5.02l28.017,0l0,-5.049l-5.985,0l0,-5.967l-5.051,0l0,6.002l-10.961,0l0,-6.002l5.006,0l0,-5.042l-5.014,0l0,-16.955Z" style="fill:#3a4652;fill-rule:nonzero;"/><rect x="305.537" y="181.998" width="6.018" height="7.003" style="fill:#3a4652;fill-rule:nonzero;"/><rect x="350.549" y="183.007" width="5.993" height="5.993" style="fill:#3a4652;fill-rule:nonzero;"/><path d="M356.542,199.984l11.022,0l0,-28.005l-28.024,0l0,28.005l11.1,0l0,5.006l5.902,0l0,-5.006Zm-11.937,-6.014l0,-16.981l17.939,0l0,16.981l-17.939,0Z" style="fill:#3a4652;fill-rule:nonzero;"/><rect x="356.542" y="204.99" width="11.022" height="6.006" style="fill:#3a4652;fill-rule:nonzero;"/><rect x="350.519" y="227" width="6.062" height="6" style="fill:#3a4652;fill-rule:nonzero;"/><rect x="321.58" y="220.008" width="5.985" height="4.069" style="fill:#3a4652;fill-rule:nonzero;"/><rect x="294.55" y="238.996" width="6.005" height="6.05" style="fill:#3a4652;fill-rule:nonzero;"/><rect x="327.558" y="181.998" width="6.994" height="12.007" style="fill:#3a4652;fill-rule:nonzero;"/><path d="M333.554,205.027l0.05,5.923l12.933,0l0,-5.923l-12.983,0Z" style="fill:#3a4652;fill-rule:nonzero;"/><path d="M374.531,124.99l0.044,21.035l-6.031,-0.027l0.003,-21.021c2,0.015 3.984,-0.002 5.984,0.013Z" style="fill:#3a4652;"/><path d="M411.595,175.024l-18.074,0l0,-6.016l18.074,0l0,6.016Z" style="fill:#3a4652;"/><path d="M407.821,140.965l-14.659,14.659l-4.888,-4.577l14.659,-14.66c1.415,1.415 3.474,3.163 4.888,4.578Z" style="fill:#3a4652;"/></svg>