<?xml version="1.0" encoding="UTF-8" standalone="no"?><!DOCTYPE svg PUBLIC "-//W3C//DTD SVG 1.1//EN" "http://www.w3.org/Graphics/SVG/1.1/DTD/svg11.dtd"><svg width="100%" height="100%" viewBox="0 0 512 512" version="1.1" xmlns="http://www.w3.org/2000/svg" xmlns:xlink="http://www.w3.org/1999/xlink" xml:space="preserve" xmlns:serif="http://www.serif.com/" style="fill-rule:evenodd;clip-rule:evenodd;stroke-linejoin:round;stroke-miterlimit:1.5;"><rect id="Artboard5" x="0" y="0" width="512" height="512" style="fill:none;"/><g><path d="M438.964,271.868l0,74.681l-15.151,21.567l-311.57,3.862l-33.48,-10.96l-5.727,-77.122l39.207,19.279l301.692,-3.541l25.029,-27.766Z" style="fill:#f2f2f2;"/><path d="M438.964,271.868l0,74.681l-22.934,25.429l4.643,-78.931l18.291,-21.179Z" style="fill:#bfbfbf;"/><path d="M73.66,210.038c0,0 1.868,-10.24 3.88,-21.276c2.843,-15.585 16.364,-26.947 32.206,-27.062c69.958,-0.51 254.157,-1.85 311.75,-2.27c4.621,-0.033 9.064,1.779 12.344,5.035c3.279,3.255 5.124,7.685 5.124,12.306l0,14.1l-338.401,0l-26.903,19.167Z" style="fill:#ccc;"/><path d="M438.964,190.871l-320.928,0c-11.934,0 -23.38,4.741 -31.82,13.18c-8.439,8.439 -13.18,19.885 -13.18,31.82l0,22.304c0,11.934 4.741,23.38 13.18,31.819c8.44,8.44 19.886,13.181 31.82,13.181l270.928,0c13.261,0 25.978,-5.268 35.355,-14.645c9.377,-9.377 14.645,-22.095 14.645,-35.355c0,-29.969 0,-62.304 0,-62.304Z" style="fill:#a6a6a6;stroke:#3a4652;stroke-width:10px;"/><path d="M438.964,172.496c0,-17.923 -14.551,-32.474 -32.474,-32.474l-300.98,0c-17.923,0 -32.474,14.551 -32.474,32.474l0,167.008c0,17.923 14.551,32.474 32.474,32.474l300.98,0c17.923,0 32.474,-14.551 32.474,-32.474l0,-167.008Z" style="fill:none;stroke:#3a4652;stroke-width:10px;"/></g></svg>