<?xml version="1.0" encoding="UTF-8" standalone="no"?><!DOCTYPE svg PUBLIC "-//W3C//DTD SVG 1.1//EN" "http://www.w3.org/Graphics/SVG/1.1/DTD/svg11.dtd"><svg width="100%" height="100%" viewBox="0 0 490 245" version="1.1" xmlns="http://www.w3.org/2000/svg" xmlns:xlink="http://www.w3.org/1999/xlink" xml:space="preserve" xmlns:serif="http://www.serif.com/" style="fill-rule:evenodd;clip-rule:evenodd;stroke-linejoin:round;stroke-miterlimit:2;"><rect id="export-stage" serif:id="export stage" x="0" y="0" width="489.75" height="244.997" style="fill:none;"/><g id="Layer-1" serif:id="Layer 1"></g><g><g><path d="M185.575,7.445c5.64,-5.64 14.783,-5.64 20.423,0c14.462,14.462 39.173,39.173 39.173,39.173c0,0 24.426,-24.425 39.166,-39.166c6.038,-6.037 15.826,-6.037 21.863,0c0,0 0,0 0,0c6.037,6.037 6.037,15.826 0,21.863c-16.761,16.761 -47.877,47.877 -57.443,57.443c-1.587,1.587 -4.159,1.587 -5.746,0c-13.315,-13.314 -68.375,-68.374 -68.375,-68.374c0,0 5.533,-5.533 10.939,-10.939Z" style="fill:#244296;"/><path d="M204.853,6.865c2.804,2.805 4.38,6.609 4.38,10.575c0,3.966 -1.576,7.77 -4.38,10.575c-3.079,3.078 -6.553,6.552 -10.03,10.029c-11.459,11.46 -11.459,30.039 0,41.499c13.78,13.779 29.348,29.348 29.348,29.348c0,0 0,0 0,0c-5.798,5.799 -13.662,9.056 -21.862,9.056c-8.201,0 -16.065,-3.257 -21.863,-9.056c-12.745,-12.744 -28.265,-28.265 -38.465,-38.464c-6.031,-6.031 -6.031,-15.81 0,-21.841c11.703,-11.703 30.154,-30.153 41.722,-41.721c5.84,-5.841 15.309,-5.841 21.149,0c0,0 0.001,0 0.001,0Z" style="fill:#244296;"/><path d="M285.053,6.865c-2.805,2.805 -4.381,6.609 -4.381,10.575c0,3.966 1.576,7.77 4.381,10.575c3.078,3.078 6.552,6.552 10.029,10.029c11.46,11.46 11.46,30.039 0,41.499c-13.779,13.779 -29.348,29.348 -29.348,29.348c0,0 0,0 0,0c5.798,5.799 13.663,9.056 21.863,9.056c8.2,0 16.064,-3.257 21.862,-9.056c12.745,-12.744 28.266,-28.265 38.465,-38.464c6.031,-6.031 6.031,-15.81 0,-21.841c-11.703,-11.703 -30.153,-30.153 -41.722,-41.721c-5.84,-5.841 -15.309,-5.841 -21.149,0c0,0 0,0 0,0Z" style="fill:#244296;"/><path d="M194.618,38.252c-11.254,11.476 -11.185,29.901 0.205,41.291c13.78,13.779 29.348,29.348 29.348,29.348c0,0 0,0 0,0c-5.798,5.799 -13.662,9.056 -21.862,9.056c-7.813,0 -15.321,-2.957 -21.028,-8.251c0,0 -7.523,-7.523 -14.714,-14.715c-7.198,-7.197 -7.421,-18.795 -0.506,-26.264c11.996,-12.956 28.385,-30.657 28.385,-30.657l0.172,0.192Z" style="fill:url(#_Linear1);"/><path d="M295.287,38.252c11.254,11.476 11.186,29.901 -0.205,41.291c-13.779,13.779 -29.348,29.348 -29.348,29.348c0,0 0,0 0,0c5.798,5.799 13.663,9.056 21.863,9.056c7.812,0 15.32,-2.957 21.027,-8.251c0,0 7.523,-7.523 14.715,-14.715c7.197,-7.197 7.42,-18.795 0.505,-26.264c-11.996,-12.956 -28.385,-30.657 -28.385,-30.657l-0.172,0.192Z" style="fill:url(#_Linear2);"/></g><g transform="matrix(0.292059,0,0,0.276717,-91.9426,99.1961)"><text x="337.707px" y="316.457px" style="font-family:'FiraSans-SemiBold', 'Fira Sans', sans-serif;font-weight:600;font-size:180.69px;fill:#294d82;">M<tspan x="481.175px 582.542px 692.582px 745.343px " y="316.457px 316.457px 316.457px 316.457px ">edic</tspan>al<tspan x="985.842px 1031.74px 1084.5px 1190.92px 1279.28px 1349.75px 1423.29px 1528.82px 1683.85px 1785.21px 1891.64px " y="316.457px 316.457px 316.457px 316.457px 316.457px 316.457px 316.457px 316.457px 316.457px 316.457px 316.457px "> instrument</tspan></text><text x="474.278px" y="485.854px" style="font-family:'FiraSans-Regular', 'Fira Sans', sans-serif;font-size:150.575px;fill:#294d82;">i<tspan x="518.246px 607.989px 658.432px 747.873px 807.501px 938.049px 1021.47px 1077.33px 1121.3px 1210.74px 1300.48px 1341.89px 1411.15px 1485.69px 1557.51px 1611.12px 1694.69px " y="485.854px 485.854px 485.854px 485.854px 485.854px 485.854px 485.854px 485.854px 485.854px 485.854px 485.854px 485.854px 485.854px 485.854px 485.854px 485.854px 485.854px ">nformation system</tspan></text></g></g><g id="Layer-11" serif:id="Layer 1"></g><g id="Layer-12" serif:id="Layer 1"></g><g id="Layer-13" serif:id="Layer 1"></g><g id="Layer-14" serif:id="Layer 1"></g><g id="Layer-15" serif:id="Layer 1"></g><g id="Layer-16" serif:id="Layer 1"></g><defs><linearGradient id="_Linear1" x1="0" y1="0" x2="1" y2="0" gradientUnits="userSpaceOnUse" gradientTransform="matrix(9.53339,30.5506,-30.5506,9.53339,174.636,66.7609)"><stop offset="0" style="stop-color:#0a1c52;stop-opacity:1"/><stop offset="1" style="stop-color:#152e78;stop-opacity:1"/></linearGradient><linearGradient id="_Linear2" x1="0" y1="0" x2="1" y2="0" gradientUnits="userSpaceOnUse" gradientTransform="matrix(-9.53339,30.5506,30.5506,9.53339,315.269,66.7609)"><stop offset="0" style="stop-color:#0a1c52;stop-opacity:1"/><stop offset="1" style="stop-color:#152e78;stop-opacity:1"/></linearGradient></defs></svg>