<?xml version="1.0" encoding="UTF-8" standalone="no"?><!DOCTYPE svg PUBLIC "-//W3C//DTD SVG 1.1//EN" "http://www.w3.org/Graphics/SVG/1.1/DTD/svg11.dtd"><svg width="100%" height="100%" viewBox="0 0 512 512" version="1.1" xmlns="http://www.w3.org/2000/svg" xmlns:xlink="http://www.w3.org/1999/xlink" xml:space="preserve" xmlns:serif="http://www.serif.com/" style="fill-rule:evenodd;clip-rule:evenodd;stroke-linecap:round;stroke-linejoin:round;stroke-miterlimit:1.5;"><rect id="Artboard1" x="0" y="0" width="512" height="512" style="fill:none;"/><g id="Artboard11" serif:id="Artboard1"><g><rect x="141.991" y="67.285" width="230" height="330.335" style="fill:#2cabe3;"/><rect x="141.991" y="65.952" width="253.999" height="333.952" style="fill:none;stroke:#3a4652;stroke-width:10px;"/><rect x="116.01" y="116.899" width="39.046" height="65.06" style="fill:#2cabe3;stroke:#3a4652;stroke-width:10px;"/><rect x="116.01" y="282.902" width="39.046" height="65.06" style="fill:#2cabe3;stroke:#3a4652;stroke-width:10px;"/><path d="M208.091,351.755l88.326,0" style="fill:none;stroke:#fff;stroke-width:7px;stroke-linecap:square;"/><g><path d="M280.97,249.901c2.086,-1.93 4.489,-3.59 7.18,-4.896c14.58,-7.075 32.11,-1.088 39.123,13.363c7.013,14.45 0.869,31.926 -13.71,39.002c-14.58,7.076 -32.111,1.088 -39.123,-13.362c-1.671,-3.442 -2.595,-7.056 -2.836,-10.66c0,0 -4.581,-45.067 -5.669,-55.767c-0.146,-1.436 -0.905,-2.738 -2.082,-3.573c-3.576,-2.536 -11.391,-8.078 -14.938,-10.593c-1.156,-0.819 -1.91,-2.091 -2.074,-3.498c-0.608,-5.2 -2.117,-18.115 -2.656,-22.735c-0.128,-1.088 0.106,-2.188 0.665,-3.13c4.932,-8.322 29.684,-50.077 38.242,-64.514c1.699,-2.867 5.175,-4.149 8.329,-3.072c0,0 0.001,0.001 0.001,0.001c2.159,0.737 3.918,2.334 4.858,4.413c0.941,2.079 0.98,4.454 0.109,6.563c-6.5,15.731 -20.401,49.378 -23.178,56.099c-0.32,0.776 -0.44,1.62 -0.349,2.454c1.083,9.875 8.108,73.905 8.108,73.905Zm-12.623,-63.442c0.114,-1.569 -0.169,-3.186 -0.903,-4.698c-2.244,-4.623 -7.851,-6.538 -12.516,-4.275c-1.268,0.616 -2.336,1.477 -3.175,2.498l16.594,6.475Zm-18.642,-1.814c-0.247,1.76 0.006,3.605 0.838,5.318c2.243,4.623 7.851,6.538 12.515,4.274c1.469,-0.712 2.67,-1.755 3.556,-2.994l-16.909,-6.598Zm59.032,102.781c-9.043,4.389 -19.915,0.675 -24.265,-8.287c-4.349,-8.963 -0.539,-19.802 8.504,-24.19c9.042,-4.388 19.915,-0.675 24.264,8.288c4.35,8.962 0.54,19.801 -8.503,24.189Z" style="fill:#fff;"/><path d="M280.385,175.754l16.385,-39.659c0,0 6.728,-3.729 11.557,-6.405c1.252,-0.694 2.734,-0.842 4.099,-0.411c1.365,0.432 2.492,1.406 3.117,2.694c0,0.001 0,0.002 0.001,0.002c2.596,5.351 1.295,11.777 -3.178,15.695c-7.847,6.873 -19.319,16.922 -21.901,19.184c-0.351,0.308 -0.657,0.663 -0.91,1.055c-1.706,2.652 -8.57,13.315 -8.57,13.315l-0.6,-5.47Zm-28.195,39.174l-11.203,60.363l-0.059,-0.093c-0.546,10.3 -6.576,20.037 -16.57,24.887c-14.58,7.075 -32.11,1.088 -39.123,-13.363c-7.013,-14.45 -0.869,-31.926 13.71,-39.002c11.752,-5.703 25.42,-2.92 33.953,5.942l7.45,-47.794c0.383,0.741 1.027,1.294 2.369,2.342l9.473,6.718Zm-32.658,75.213c-9.042,4.388 -19.915,0.675 -24.264,-8.288c-4.35,-8.962 -0.54,-19.801 8.503,-24.189c9.043,-4.389 19.915,-0.675 24.265,8.287c4.349,8.962 0.539,19.801 -8.504,24.19Z" style="fill:#fff;"/></g></g><g id="Layer-2" serif:id="Layer 2"></g></g></svg>