<?xml version="1.0" encoding="UTF-8" standalone="no"?><!DOCTYPE svg PUBLIC "-//W3C//DTD SVG 1.1//EN" "http://www.w3.org/Graphics/SVG/1.1/DTD/svg11.dtd"><svg width="100%" height="100%" viewBox="0 0 512 512" version="1.1" xmlns="http://www.w3.org/2000/svg" xmlns:xlink="http://www.w3.org/1999/xlink" xml:space="preserve" xmlns:serif="http://www.serif.com/" style="fill-rule:evenodd;clip-rule:evenodd;stroke-linejoin:round;stroke-miterlimit:2;"><rect id="Artboard3_1" x="0" y="0" width="512" height="512" style="fill:none;"/><g><path d="M259.53,281.124c0.823,-4.581 2.326,-9.123 4.554,-13.485c12.074,-23.634 40.895,-33.107 64.319,-21.14c23.425,11.967 32.641,40.871 20.567,64.505c-12.074,23.635 -40.895,33.107 -64.32,21.141c-5.579,-2.851 -10.353,-6.662 -14.225,-11.135c0,0 -53.577,-57.744 -63.423,-68.355c-0.981,-1.058 -2.372,-1.64 -3.814,-1.597c-6.681,0.2 -26.22,0.783 -32.843,0.981c-1.416,0.043 -2.784,-0.518 -3.763,-1.542c-5.328,-5.572 -22.924,-23.975 -27.631,-28.898c-0.757,-0.792 -1.233,-1.81 -1.355,-2.899c-1.459,-13.018 -10.992,-98.089 -13.96,-124.575c-0.514,-4.579 2.255,-8.89 6.632,-10.329c1.526,-0.501 3.156,-1.037 4.76,-1.564c2.675,-0.88 5.595,-0.614 8.067,0.734c2.473,1.349 4.278,3.659 4.988,6.384c6.712,25.759 23.62,90.652 26.164,100.417c0.212,0.813 0.625,1.559 1.201,2.169c8.994,9.541 84.082,89.188 84.082,89.188Zm-79.1,-70.463c-1.399,-2.165 -3.364,-3.998 -5.817,-5.25c-7.493,-3.828 -16.713,-0.798 -20.575,6.762c-1.05,2.056 -1.597,4.237 -1.686,6.399l28.078,-7.911Zm-26.154,16.024c1.413,2.544 3.565,4.705 6.341,6.124c7.493,3.828 16.713,0.797 20.575,-6.763c1.217,-2.381 1.758,-4.93 1.694,-7.423l-28.61,8.062Zm178.574,76.084c-7.488,14.659 -25.363,20.534 -39.891,13.112c-14.528,-7.422 -20.244,-25.349 -12.756,-40.007c7.489,-14.658 25.364,-20.533 39.892,-13.112c14.528,7.422 20.244,25.349 12.755,40.007Z" style="fill:#3a4652;"/><path d="M185.6,184.79l-17.718,-68.003c0,0 6.009,-13.527 9.675,-21.781c0.72,-1.62 2.075,-2.873 3.746,-3.465c1.672,-0.592 3.513,-0.47 5.093,0.337c2.018,1.031 4.323,2.208 6.561,3.351c5.954,3.042 9.14,9.69 7.781,16.237c-3.486,16.787 -9.808,47.234 -10.836,52.185c-0.095,0.456 -0.125,0.924 -0.09,1.39c0.318,4.244 1.971,26.307 1.971,26.307l-6.183,-6.558Zm1.805,79.022l44.921,89.95l-0.169,-0.063c9.45,14 11.176,32.677 2.9,48.877c-12.074,23.635 -40.894,33.107 -64.319,21.14c-23.425,-11.966 -32.64,-40.87 -20.566,-64.505c9.731,-19.049 30.343,-28.899 50.239,-25.737l-37.424,-69.819c1.232,0.591 2.619,0.679 5.408,0.725l19.01,-0.568Zm31.533,130.529c-7.488,14.659 -25.363,20.534 -39.892,13.112c-14.528,-7.422 -20.243,-25.349 -12.755,-40.007c7.488,-14.658 25.363,-20.534 39.892,-13.112c14.528,7.422 20.243,25.349 12.755,40.007Z" style="fill:#3a4652;"/><rect x="341.61" y="362.969" width="133.053" height="70.075" style="fill:#2cabe3;"/><text x="355.828px" y="416.041px" style="font-family:'ArialMT', 'Arial', sans-serif;font-size:50.512px;fill:#fff;">PCS</text></g></svg>