<?xml version="1.0" encoding="UTF-8" standalone="no"?><!DOCTYPE svg PUBLIC "-//W3C//DTD SVG 1.1//EN" "http://www.w3.org/Graphics/SVG/1.1/DTD/svg11.dtd"><svg width="100%" height="100%" viewBox="0 0 512 512" version="1.1" xmlns="http://www.w3.org/2000/svg" xmlns:xlink="http://www.w3.org/1999/xlink" xml:space="preserve" xmlns:serif="http://www.serif.com/" style="fill-rule:evenodd;clip-rule:evenodd;stroke-linejoin:round;stroke-miterlimit:2;"><rect id="Artboard3" x="0" y="0" width="512" height="512" style="fill:none;"/><g><path d="M267.598,279.568c0.822,-4.582 2.326,-9.123 4.554,-13.485c12.074,-23.635 40.895,-33.107 64.319,-21.141c23.425,11.967 32.64,40.871 20.566,64.506c-12.074,23.634 -40.894,33.107 -64.319,21.14c-5.579,-2.85 -10.353,-6.662 -14.225,-11.134c0,0 -53.577,-57.744 -63.423,-68.356c-0.981,-1.057 -2.372,-1.64 -3.814,-1.597c-6.681,0.2 -26.22,0.784 -32.843,0.982c-1.416,0.042 -2.784,-0.518 -3.763,-1.543c-5.328,-5.572 -22.924,-23.974 -27.631,-28.897c-0.757,-0.792 -1.234,-1.811 -1.356,-2.899c-1.458,-13.019 -10.991,-98.089 -13.96,-124.576c-0.513,-4.578 2.255,-8.889 6.632,-10.328c1.527,-0.502 3.157,-1.038 4.761,-1.565c2.675,-0.879 5.595,-0.613 8.067,0.735c2.473,1.348 4.278,3.658 4.988,6.384c6.711,25.758 23.62,90.652 26.164,100.417c0.212,0.812 0.625,1.558 1.2,2.169c8.995,9.54 84.083,89.188 84.083,89.188Zm-79.1,-70.464c-1.399,-2.164 -3.365,-3.997 -5.817,-5.25c-7.493,-3.828 -16.713,-0.798 -20.575,6.763c-1.051,2.056 -1.597,4.237 -1.686,6.399l28.078,-7.912Zm-26.155,16.024c1.414,2.544 3.566,4.706 6.342,6.124c7.493,3.828 16.713,0.798 20.575,-6.763c1.217,-2.381 1.758,-4.929 1.694,-7.423l-28.611,8.062Zm178.575,76.085c-7.488,14.658 -25.363,20.533 -39.891,13.111c-14.529,-7.421 -20.244,-25.348 -12.756,-40.006c7.489,-14.659 25.364,-20.534 39.892,-13.112c14.528,7.422 20.244,25.348 12.755,40.007Z" style="fill:#2cabe3;"/><path d="M193.668,183.233l-17.718,-68.003c0,0 6.009,-13.527 9.675,-21.78c0.72,-1.621 2.075,-2.874 3.746,-3.466c1.672,-0.591 3.513,-0.47 5.092,0.337c2.019,1.031 4.323,2.209 6.561,3.352c5.955,3.042 9.141,9.69 7.782,16.237c-3.486,16.787 -9.808,47.233 -10.836,52.184c-0.095,0.457 -0.125,0.925 -0.091,1.39c0.318,4.244 1.972,26.307 1.972,26.307l-6.183,-6.558Zm1.805,79.022l44.921,89.951l-0.169,-0.063c9.45,14 11.176,32.676 2.9,48.877c-12.074,23.634 -40.894,33.107 -64.319,21.14c-23.425,-11.967 -32.64,-40.871 -20.566,-64.505c9.731,-19.05 30.342,-28.899 50.239,-25.737l-37.424,-69.819c1.232,0.591 2.619,0.678 5.408,0.724l19.01,-0.568Zm31.533,130.53c-7.489,14.658 -25.363,20.533 -39.892,13.111c-14.528,-7.422 -20.244,-25.348 -12.755,-40.006c7.488,-14.659 25.363,-20.534 39.891,-13.112c14.529,7.422 20.244,25.348 12.756,40.007Z" style="fill:#2cabe3;"/><rect x="350.005" y="360.292" width="133.009" height="72.017" style="fill:#3a4652;"/><text x="363.895px" y="414.485px" style="font-family:'ArialMT', 'Arial', sans-serif;font-size:50.512px;fill:#fff;">PCS</text></g></svg>