<?xml version="1.0" encoding="UTF-8" standalone="no"?><!DOCTYPE svg PUBLIC "-//W3C//DTD SVG 1.1//EN" "http://www.w3.org/Graphics/SVG/1.1/DTD/svg11.dtd"><svg width="100%" height="100%" viewBox="0 0 512 512" version="1.1" xmlns="http://www.w3.org/2000/svg" xmlns:xlink="http://www.w3.org/1999/xlink" xml:space="preserve" xmlns:serif="http://www.serif.com/" style="fill-rule:evenodd;clip-rule:evenodd;stroke-linejoin:round;stroke-miterlimit:2;"><rect id="Artboard4" x="0" y="0" width="512" height="512" style="fill:none;"/><g><g><path d="M309.866,298.046c1.915,-3.699 4.402,-7.183 7.461,-10.322c16.576,-17.009 43.719,-17.48 60.577,-1.051c16.858,16.428 17.087,43.575 0.511,60.583c-16.576,17.009 -43.719,17.48 -60.577,1.051c-4.015,-3.913 -7.087,-8.434 -9.213,-13.282c0,0 -30.155,-62.781 -36.025,-75.001c-0.624,-1.3 -1.781,-2.268 -3.171,-2.653c-5.893,-1.633 -22.038,-6.107 -27.88,-7.726c-1.365,-0.378 -2.506,-1.318 -3.138,-2.586c-3.169,-6.35 -12.987,-26.03 -15.79,-31.647c-0.489,-0.98 -0.642,-2.094 -0.437,-3.17c2.279,-11.941 16.226,-85.007 20.843,-109.194c0.864,-4.526 4.783,-7.826 9.39,-7.906c0.82,-0.014 1.664,-0.028 2.51,-0.043c2.816,-0.049 5.526,1.068 7.49,3.087c1.963,2.019 3.004,4.76 2.876,7.573c-1.106,24.394 -3.726,82.173 -4.149,91.489c-0.038,0.839 0.136,1.674 0.506,2.427c5.425,11.068 48.216,98.371 48.216,98.371Zm-48.971,-81.167c-0.624,-2.22 -1.819,-4.307 -3.583,-6.027c-5.393,-5.255 -14.076,-5.105 -19.379,0.336c-1.442,1.48 -2.486,3.199 -3.134,5.024l26.096,0.667Zm-26.599,6.777c0.535,2.549 1.803,4.966 3.801,6.913c5.392,5.255 14.076,5.105 19.378,-0.336c1.67,-1.714 2.807,-3.749 3.412,-5.897l-26.591,-0.68Zm132.519,112.295c-10.281,10.549 -27.115,10.842 -37.571,0.652c-10.455,-10.189 -10.597,-27.025 -0.317,-37.574c10.281,-10.549 27.115,-10.841 37.571,-0.652c10.455,10.189 10.597,27.026 0.317,37.574Z" style="fill:#2cd07e;"/><path d="M272.16,196.132l2.849,-62.82c0,0 8.218,-9.402 13.563,-15.519c1.167,-1.335 2.832,-2.131 4.604,-2.202c1.771,-0.071 3.495,0.589 4.764,1.827c1.061,1.033 2.209,2.153 3.356,3.27c4.789,4.667 5.866,11.96 2.632,17.812c-7.481,13.534 -20.223,36.588 -22.461,40.635c-0.225,0.409 -0.393,0.847 -0.497,1.301c-0.89,3.883 -5.26,22.938 -5.26,22.938l-3.55,-7.242Zm-19.368,68.029l14.597,88.78l-0.128,-0.099c4.373,14.469 0.907,30.891 -10.455,42.549c-16.575,17.009 -43.719,17.48 -60.577,1.051c-16.857,-16.428 -17.086,-43.575 -0.511,-60.583c13.36,-13.709 33.586,-16.675 49.758,-8.707l-13.516,-69.587c0.897,0.832 2.059,1.273 4.431,2.051l16.401,4.545Zm-7.586,119.925c-10.28,10.549 -27.115,10.841 -37.57,0.652c-10.456,-10.189 -10.598,-27.026 -0.317,-37.574c10.28,-10.549 27.115,-10.841 37.57,-0.652c10.455,10.189 10.597,27.025 0.317,37.574Z" style="fill:#2cd07e;"/></g><g><path d="M137.929,93.287c7.255,72.872 16.371,145.542 26.926,218.055c0.165,1.129 0.2,2.272 0.105,3.408c-1.119,12.86 -4.087,25.921 -8.701,39.161l4.308,42.436l-2.594,0.282l-4.61,-42.396c-6.453,-11.939 -11.895,-23.988 -16.37,-36.141c-0.474,-1.291 -0.767,-2.641 -0.872,-4.012c-0.979,-12.645 -6.316,-80.78 -10.417,-113.953c-4.094,-33.11 -12.446,-97.126 -13.308,-103.732c-0.028,-0.183 -0.052,-0.368 -0.073,-0.554c-0.767,-7.06 4.341,-13.415 11.401,-14.183c7.06,-0.767 13.415,4.341 14.183,11.401c0.008,0.076 0.016,0.152 0.022,0.228Z" style="fill:#2cd07e;"/><path d="M135.979,356.644c-0.547,1.439 -1.114,2.878 -1.702,4.319l2.101,42.602l-2.605,0.147l-2.404,-42.578c-5.683,-11.959 -10.4,-23.972 -14.191,-36.038c-0.591,-1.895 -0.915,-3.862 -0.965,-5.847c-0.334,-12.998 -1.756,-66.207 -3.687,-100.908c3.388,30.579 5.913,61.468 8.374,92.263c0.451,5.682 0.323,11.441 2.175,16.66c3.647,9.994 8.028,19.806 12.904,29.38Z" style="fill:#2cd07e;"/></g><rect x="338.847" y="356.329" width="132.041" height="71.932" style="fill:#3a4652;"/><path d="M471.602,346.354l0.71,0.077l0.702,0.126l0.692,0.177l0.677,0.225l0.66,0.273l0.638,0.32l0.614,0.364l0.586,0.407l0.556,0.448l0.522,0.487l0.487,0.522l0.448,0.556l0.407,0.586l0.364,0.614l0.32,0.639l0.273,0.659l0.225,0.677l0.177,0.692l0.127,0.703l0.076,0.709l0.025,0.714l0,71.932l-0.025,0.713l-0.076,0.71l-0.127,0.702l-0.177,0.692l-0.225,0.677l-0.273,0.66l-0.32,0.638l-0.364,0.614l-0.407,0.586l-0.448,0.556l-0.487,0.523l-0.522,0.486l-0.556,0.448l-0.586,0.407l-0.614,0.365l-0.638,0.319l-0.66,0.273l-0.677,0.226l-0.692,0.176l-0.702,0.127l-0.71,0.076l-0.714,0.026l-132.041,0l-0.713,-0.026l-0.71,-0.076l-0.702,-0.127l-0.692,-0.176l-0.677,-0.226l-0.66,-0.273l-0.638,-0.319l-0.614,-0.365l-0.586,-0.407l-0.556,-0.448l-0.523,-0.486l-0.486,-0.523l-0.448,-0.556l-0.407,-0.586l-0.364,-0.614l-0.32,-0.638l-0.273,-0.66l-0.226,-0.677l-0.176,-0.692l-0.127,-0.702l-0.076,-0.71l-0.026,-0.713l0,-71.932l0.026,-0.714l0.076,-0.709l0.127,-0.703l0.176,-0.692l0.226,-0.677l0.273,-0.659l0.32,-0.639l0.364,-0.614l0.407,-0.586l0.448,-0.556l0.486,-0.522l0.523,-0.487l0.556,-0.448l0.586,-0.407l0.614,-0.364l0.638,-0.32l0.66,-0.273l0.677,-0.225l0.692,-0.177l0.702,-0.126l0.71,-0.077l0.713,-0.025l132.041,0l0.714,0.025Zm-132.755,9.975l0,71.932l132.041,0l0,-71.932l-132.041,0Z" style="fill:#fff;"/><text x="355.263px" y="410.419px" style="font-family:'ArialMT', 'Arial', sans-serif;font-size:50.512px;fill:#fff;">SET</text></g></svg>