<?xml version="1.0" encoding="UTF-8" standalone="no"?><!DOCTYPE svg PUBLIC "-//W3C//DTD SVG 1.1//EN" "http://www.w3.org/Graphics/SVG/1.1/DTD/svg11.dtd"><svg width="100%" height="100%" viewBox="0 0 512 512" version="1.1" xmlns="http://www.w3.org/2000/svg" xmlns:xlink="http://www.w3.org/1999/xlink" xml:space="preserve" xmlns:serif="http://www.serif.com/" style="fill-rule:evenodd;clip-rule:evenodd;stroke-linejoin:round;stroke-miterlimit:2;"><rect id="Artboard4_1" x="0" y="0" width="512" height="512" style="fill:none;"/><g><g><path d="M313.217,303.668c1.915,-3.699 4.402,-7.183 7.461,-10.322c16.576,-17.009 43.719,-17.48 60.577,-1.051c16.858,16.428 17.087,43.575 0.511,60.584c-16.576,17.008 -43.719,17.479 -60.577,1.051c-4.015,-3.913 -7.087,-8.435 -9.213,-13.283c0,0 -30.155,-62.781 -36.025,-75c-0.624,-1.301 -1.781,-2.268 -3.171,-2.654c-5.892,-1.633 -22.038,-6.107 -27.88,-7.726c-1.365,-0.378 -2.506,-1.318 -3.138,-2.586c-3.169,-6.35 -12.987,-26.03 -15.79,-31.647c-0.489,-0.98 -0.642,-2.093 -0.437,-3.169c2.279,-11.942 16.226,-85.007 20.843,-109.195c0.864,-4.526 4.783,-7.825 9.39,-7.905c0.82,-0.014 1.664,-0.029 2.51,-0.044c2.816,-0.049 5.526,1.069 7.49,3.088c1.963,2.019 3.004,4.759 2.877,7.573c-1.107,24.394 -3.727,82.172 -4.15,91.489c-0.038,0.838 0.136,1.673 0.506,2.427c5.425,11.068 48.216,98.37 48.216,98.37Zm-48.971,-81.166c-0.624,-2.221 -1.819,-4.308 -3.583,-6.027c-5.393,-5.256 -14.076,-5.105 -19.379,0.336c-1.442,1.479 -2.486,3.199 -3.134,5.024l26.096,0.667Zm-26.598,6.776c0.534,2.549 1.802,4.966 3.8,6.913c5.392,5.256 14.076,5.105 19.378,-0.336c1.67,-1.713 2.807,-3.749 3.412,-5.897l-26.59,-0.68Zm132.518,112.296c-10.281,10.549 -27.115,10.841 -37.571,0.652c-10.455,-10.189 -10.597,-27.026 -0.317,-37.575c10.281,-10.549 27.116,-10.841 37.571,-0.652c10.455,10.189 10.597,27.026 0.317,37.575Z" style="fill:#3a4652;"/><path d="M275.511,201.754l2.849,-62.82c0,0 8.218,-9.402 13.563,-15.518c1.167,-1.336 2.832,-2.132 4.604,-2.203c1.772,-0.071 3.495,0.59 4.765,1.827c1.06,1.033 2.208,2.153 3.355,3.271c4.789,4.667 5.867,11.959 2.632,17.812c-7.481,13.533 -20.223,36.587 -22.46,40.635c-0.226,0.408 -0.394,0.846 -0.498,1.301c-0.89,3.882 -5.26,22.937 -5.26,22.937l-3.55,-7.242Zm-19.368,68.029l14.597,88.78l-0.128,-0.099c4.373,14.469 0.907,30.891 -10.455,42.55c-16.575,17.008 -43.719,17.479 -60.576,1.051c-16.858,-16.429 -17.087,-43.575 -0.511,-60.584c13.36,-13.709 33.585,-16.675 49.757,-8.707l-13.516,-69.586c0.897,0.831 2.059,1.272 4.431,2.05l16.401,4.545Zm-7.586,119.926c-10.28,10.549 -27.115,10.841 -37.57,0.652c-10.456,-10.19 -10.598,-27.026 -0.317,-37.575c10.28,-10.549 27.115,-10.841 37.57,-0.652c10.455,10.189 10.597,27.026 0.317,37.575Z" style="fill:#3a4652;"/></g><g><path d="M141.281,98.909c7.254,72.872 16.37,145.542 26.926,218.056c0.164,1.128 0.199,2.271 0.105,3.408c-1.119,12.859 -4.088,25.92 -8.702,39.16l4.308,42.436l-2.594,0.282l-4.61,-42.396c-6.452,-11.939 -11.895,-23.987 -16.37,-36.141c-0.473,-1.291 -0.767,-2.641 -0.872,-4.012c-0.979,-12.645 -6.316,-80.78 -10.417,-113.953c-4.093,-33.11 -12.446,-97.125 -13.308,-103.731c-0.028,-0.184 -0.052,-0.369 -0.072,-0.555c-0.768,-7.06 4.34,-13.415 11.4,-14.182c7.06,-0.768 13.415,4.341 14.183,11.4c0.008,0.076 0.016,0.152 0.023,0.228Z" style="fill:#3a4652;"/><path d="M139.33,362.267c-0.547,1.438 -1.114,2.878 -1.701,4.318l2.1,42.603l-2.605,0.147l-2.404,-42.579c-5.683,-11.959 -10.399,-23.972 -14.191,-36.038c-0.591,-1.895 -0.915,-3.862 -0.965,-5.846c-0.334,-12.999 -1.756,-66.208 -3.687,-100.909c3.388,30.58 5.913,61.468 8.374,92.264c0.451,5.682 0.323,11.44 2.175,16.659c3.647,9.994 8.028,19.806 12.904,29.381Z" style="fill:#3a4652;"/></g><rect x="342.199" y="361.953" width="132.041" height="72.044" style="fill:#2cd07e;"/><path d="M474.953,351.978l0.71,0.077l0.702,0.126l0.692,0.177l0.677,0.225l0.66,0.274l0.638,0.319l0.614,0.364l0.586,0.408l0.556,0.447l0.523,0.487l0.486,0.522l0.448,0.556l0.407,0.587l0.364,0.613l0.32,0.639l0.273,0.659l0.225,0.678l0.177,0.691l0.127,0.703l0.076,0.71l0.025,0.713l0,72.044l-0.025,0.713l-0.076,0.71l-0.127,0.703l-0.177,0.691l-0.225,0.678l-0.273,0.659l-0.32,0.638l-0.364,0.614l-0.407,0.587l-0.448,0.555l-0.486,0.523l-0.523,0.486l-0.556,0.448l-0.586,0.407l-0.614,0.365l-0.638,0.319l-0.66,0.273l-0.677,0.226l-0.692,0.176l-0.702,0.127l-0.71,0.076l-0.714,0.026l-132.041,0l-0.713,-0.026l-0.71,-0.076l-0.702,-0.127l-0.692,-0.176l-0.677,-0.226l-0.66,-0.273l-0.638,-0.319l-0.614,-0.365l-0.586,-0.407l-0.556,-0.448l-0.523,-0.486l-0.486,-0.523l-0.448,-0.555l-0.407,-0.587l-0.364,-0.614l-0.32,-0.638l-0.273,-0.659l-0.225,-0.678l-0.177,-0.691l-0.127,-0.703l-0.076,-0.71l-0.026,-0.713l0,-72.044l0.026,-0.713l0.076,-0.71l0.127,-0.703l0.177,-0.691l0.225,-0.678l0.273,-0.659l0.32,-0.639l0.364,-0.613l0.407,-0.587l0.448,-0.556l0.486,-0.522l0.523,-0.487l0.556,-0.447l0.586,-0.408l0.614,-0.364l0.638,-0.319l0.66,-0.274l0.677,-0.225l0.692,-0.177l0.702,-0.126l0.71,-0.077l0.713,-0.025l132.041,0l0.714,0.025Zm-132.754,9.975l0,72.044l132.041,0l0,-72.044l-132.041,0Z" style="fill:#fff;"/><text x="358.615px" y="416.041px" style="font-family:'ArialMT', 'Arial', sans-serif;font-size:50.512px;fill:#fff;">SET</text></g></svg>