<?xml version="1.0" encoding="UTF-8" standalone="no"?><!DOCTYPE svg PUBLIC "-//W3C//DTD SVG 1.1//EN" "http://www.w3.org/Graphics/SVG/1.1/DTD/svg11.dtd"><svg width="100%" height="100%" viewBox="0 0 512 512" version="1.1" xmlns="http://www.w3.org/2000/svg" xmlns:xlink="http://www.w3.org/1999/xlink" xml:space="preserve" xmlns:serif="http://www.serif.com/" style="fill-rule:evenodd;clip-rule:evenodd;stroke-linecap:round;stroke-linejoin:round;stroke-miterlimit:1.5;"><rect id="Artboard2" x="0" y="0" width="512" height="512" style="fill:none;"/><g><g><path d="M338.298,379.923l-35.904,0l0,62.554l21.786,-11.429l14.118,1.54l0,-52.665Z" style="fill:#2cd07e;"/><path d="M358.057,382.275l-54.064,0l0,62.553l27.032,-12.218l27.032,12.218l0,-62.553Z" style="fill:none;stroke:#3a4652;stroke-width:10px;"/><rect x="142.181" y="67.285" width="230" height="330.335" style="fill:#2cd07e;"/><rect x="142.966" y="65.952" width="253.999" height="333.952" style="fill:none;stroke:#3a4652;stroke-width:10px;"/><path d="M225.045,354.022l88.325,0" style="fill:none;stroke:#fff;stroke-width:7px;stroke-linecap:square;"/><rect x="115.922" y="116.899" width="39.046" height="65.06" style="fill:#2cd07e;stroke:#3a4652;stroke-width:10px;"/><rect x="115.922" y="282.902" width="39.046" height="65.06" style="fill:#2cd07e;stroke:#3a4652;stroke-width:10px;"/><g><path d="M312.512,240.408c1.127,-2.175 2.589,-4.224 4.387,-6.069c9.746,-10 25.704,-10.277 35.615,-0.618c9.911,9.659 10.046,25.619 0.301,35.619c-9.746,10 -25.704,10.277 -35.615,0.618c-2.361,-2.301 -4.167,-4.959 -5.417,-7.809c0,0 -16.532,-34.417 -20.775,-43.252c-0.625,-1.301 -1.781,-2.268 -3.172,-2.654c-3.659,-1.014 -10.975,-3.041 -14.605,-4.047c-1.366,-0.378 -2.506,-1.318 -3.139,-2.586c-2.055,-4.119 -6.733,-13.495 -8.563,-17.163c-0.489,-0.98 -0.642,-2.094 -0.437,-3.17c1.675,-8.773 9.522,-49.884 12.142,-63.609c0.497,-2.606 2.754,-4.506 5.407,-4.552c0,0 0.001,0 0.001,0c2.062,-0.036 4.048,0.782 5.486,2.261c1.438,1.479 2.201,3.487 2.108,5.548c-0.665,14.667 -2.046,45.099 -2.345,51.694c-0.038,0.838 0.136,1.673 0.506,2.427c4.013,8.187 28.115,57.362 28.115,57.362Zm-28.791,-47.721c-0.367,-1.305 -1.069,-2.532 -2.107,-3.543c-3.17,-3.09 -8.276,-3.002 -11.393,0.197c-0.848,0.87 -1.462,1.881 -1.843,2.954l15.343,0.392Zm-15.638,3.984c0.314,1.499 1.06,2.92 2.234,4.065c3.171,3.09 8.276,3.001 11.393,-0.198c0.982,-1.007 1.65,-2.204 2.006,-3.467l-15.633,-0.4Zm77.912,66.022c-6.045,6.203 -15.942,6.374 -22.089,0.384c-6.147,-5.991 -6.231,-15.89 -0.187,-22.092c6.045,-6.202 15.942,-6.373 22.089,-0.383c6.147,5.991 6.231,15.889 0.187,22.091Z" style="fill:#fff;"/><path d="M290.344,180.489l1.675,-36.934c0,0 4.642,-5.311 7.785,-8.908c0.736,-0.841 1.784,-1.343 2.901,-1.388c1.116,-0.044 2.202,0.372 3.002,1.152c0,0 0.001,0.001 0.001,0.001c3.859,3.761 4.727,9.636 2.12,14.351c-4.292,7.767 -10.379,18.779 -11.872,21.479c-0.225,0.409 -0.393,0.847 -0.497,1.302c-0.642,2.797 -3.028,13.203 -3.028,13.203l-2.087,-4.258Zm-11.387,39.996l8.582,52.197l-0.075,-0.058c2.571,8.506 0.533,18.162 -6.147,25.016c-9.745,10 -25.704,10.277 -35.615,0.618c-9.911,-9.659 -10.046,-25.619 -0.301,-35.619c7.855,-8.06 19.747,-9.804 29.254,-5.119l-7.946,-40.912c0.527,0.488 1.211,0.748 2.605,1.205l9.643,2.672Zm-4.46,70.509c-6.044,6.202 -15.942,6.373 -22.089,0.383c-6.147,-5.991 -6.231,-15.89 -0.186,-22.092c6.044,-6.202 15.941,-6.373 22.088,-0.383c6.147,5.991 6.231,15.889 0.187,22.092Z" style="fill:#fff;"/></g><g><path d="M210.603,120.023c4.242,42.612 9.566,85.106 15.73,127.509c0.17,1.169 0.201,2.354 0.093,3.531c-0.718,7.29 -2.433,14.691 -5.047,22.189l2.533,24.95l-1.525,0.166l-2.71,-24.926c-3.642,-6.738 -6.736,-13.535 -9.306,-20.39c-0.486,-1.308 -0.788,-2.679 -0.895,-4.071c-0.721,-9.236 -3.731,-47.292 -6.061,-66.143c-2.407,-19.467 -7.317,-57.104 -7.824,-60.987c-0.017,-0.108 -0.031,-0.217 -0.043,-0.326c-0.451,-4.151 2.552,-7.887 6.703,-8.339c4.151,-0.451 7.887,2.552 8.338,6.703c0.005,0.045 0.01,0.089 0.014,0.134Z" style="fill:#fff;"/><path d="M209.456,274.859c-0.321,0.846 -0.655,1.693 -1,2.54l1.235,25.047l-1.532,0.086l-1.413,-25.033c-3.342,-7.031 -6.115,-14.094 -8.344,-21.188c-0.347,-1.114 -0.538,-2.271 -0.567,-3.437c-0.197,-7.642 -1.033,-38.926 -2.168,-59.327c1.992,17.978 3.477,36.138 4.923,54.244c0.266,3.341 0.19,6.726 1.279,9.795c2.144,5.876 4.72,11.644 7.587,17.273Z" style="fill:#fff;"/></g></g></g></svg>