<?xml version="1.0" encoding="UTF-8" standalone="no"?><!DOCTYPE svg PUBLIC "-//W3C//DTD SVG 1.1//EN" "http://www.w3.org/Graphics/SVG/1.1/DTD/svg11.dtd"><svg width="100%" height="100%" viewBox="0 0 742 1180" version="1.1" xmlns="http://www.w3.org/2000/svg" xmlns:xlink="http://www.w3.org/1999/xlink" xml:space="preserve" xmlns:serif="http://www.serif.com/" style="fill-rule:evenodd;clip-rule:evenodd;stroke-linejoin:round;stroke-miterlimit:2;"><path d="M486.84,1172.26c0,0 77.626,0.687 81.061,-101.67c3.434,-102.357 -70.414,-132.926 -96.518,-132.926c-26.104,0 -38.813,9.96 -54.613,9.96c-15.8,0 -26.792,-5.495 -32.974,-57.704c-6.183,-52.209 -54.957,-477.436 -54.957,-477.436l-37.224,-99.308l-5.152,-282.864c0,0 -15.1,2.503 -15.979,26.684c-0.879,24.181 -5.795,288.283 -5.795,288.283l25.461,123.395c0,0 25.761,21.336 29.278,65.301c3.51,43.881 48.282,385.302 48.282,385.302l-64.898,22.428l1.407,12.603l66.614,-5.503c0,0 9.054,7.725 14.673,35.323c9.368,46.009 -7.053,188.616 101.334,188.132Zm-17.471,-213.322c0,0 77.146,-4.891 80.926,107.16c3.478,103.115 -78.592,103.158 -104.714,76.479c-26.123,-26.678 -36.684,-58.771 -36.684,-90.524c0,-31.753 10.338,-93.893 60.472,-93.115Z" style="fill:#2cabe3;"/><path d="M206.193,946.265c0,0 -12.589,30.329 -18.548,81.147c-6.78,57.817 -17.775,139.881 -98.149,139.109c-80.374,-0.773 -98.922,-101.241 -69.555,-168.477c29.368,-67.236 102.014,-71.1 127.517,-55.644c25.503,15.457 40.96,0 47.142,-48.688c6.183,-48.688 70.328,-548.708 70.328,-548.708l30.267,-31.908l8.019,-282.785c0,0 13.552,8.684 13.552,25.144c0,16.461 5.738,389.113 5.738,389.113l-45.339,38.745c0,0 -16.487,48.495 -23.906,106.27c-7.42,57.775 -45.34,325.689 -45.34,325.689l71.306,25.452l0,12.156l-73.032,-6.615Zm-95.573,8.219c0,0 -81.556,-9.123 -87.052,103.538c-5.495,112.661 86.079,98.666 111.013,76.61c22.862,-20.224 33.266,-58.319 34.037,-100.681c0.695,-38.25 -16.011,-75.4 -57.998,-79.467Z" style="fill:#2cabe3;"/><path d="M305.527,26.845l0.182,0.122l0.24,0.166l0.3,0.215l0.363,0.268l0.419,0.322l0.47,0.374l0.509,0.422l0.283,0.24l0.284,0.247l0.294,0.261l0.302,0.274l0.311,0.288l0.317,0.301l0.325,0.315l0.33,0.328l0.336,0.342l0.341,0.355l0.345,0.369l0.348,0.383l0.352,0.397l0.353,0.41l0.355,0.424l0.356,0.437l0.357,0.452l0.355,0.466l0.355,0.479l0.353,0.493l0.351,0.508l0.348,0.521l0.344,0.536l0.339,0.549l0.334,0.564l0.328,0.578l0.321,0.592l0.315,0.606l0.301,0.611l0.154,0.325l0.147,0.319l0.146,0.322l0.142,0.326l0.14,0.33l0.138,0.333l0.134,0.336l0.132,0.34l0.128,0.344l0.126,0.347l0.123,0.351l0.119,0.354l0.116,0.357l0.113,0.361l0.109,0.364l0.105,0.368l0.102,0.371l0.098,0.375l0.094,0.378l0.09,0.381l0.086,0.385l0.081,0.388l0.078,0.391l0.073,0.395l0.069,0.397l0.064,0.401l0.059,0.404l0.055,0.408l0.05,0.411l0.045,0.413l0.04,0.417l0.035,0.42l0.03,0.423l0.025,0.426l0.019,0.43l0.014,0.432l0.008,0.435l0.003,0.416l0.004,1.026l0.012,1.521l0.048,4.509l0.078,6.334l0.104,8.022l0.13,9.576l0.153,10.997l0.367,25.72l0.434,29.798l0.485,32.808l0.518,34.751l0.535,35.626l1.054,69.606l0.919,60.293l0.896,58.484l-0.369,1.778l-1.09,1.453l-44.458,37.991l-0.042,0.129l-0.305,0.935l-0.382,1.19l-0.455,1.437l-0.523,1.679l-0.588,1.911l-0.646,2.138l-0.702,2.358l-0.368,1.256l-0.382,1.31l-0.392,1.362l-0.403,1.411l-0.413,1.461l-0.423,1.509l-0.432,1.557l-0.44,1.603l-0.448,1.649l-0.455,1.694l-0.461,1.738l-0.468,1.781l-0.473,1.822l-0.477,1.865l-0.482,1.904l-0.486,1.944l-0.489,1.982l-0.491,2.02l-0.493,2.056l-0.494,2.093l-0.496,2.127l-0.495,2.161l-0.495,2.194l-0.494,2.227l-0.492,2.257l-0.49,2.288l-0.488,2.318l-0.484,2.346l-0.48,2.373l-0.476,2.401l-0.47,2.426l-0.465,2.451l-0.459,2.475l-0.451,2.498l-0.445,2.52l-0.436,2.542l-0.428,2.564l-0.21,1.286l-0.208,1.293l-0.206,1.298l-0.203,1.302l-0.201,1.307l-0.198,1.311l-0.195,1.315l-0.192,1.319l-0.19,1.323l-0.186,1.327l-0.184,1.331l-0.18,1.334l-0.178,1.338l-0.174,1.346l-0.37,2.862l-0.414,3.163l-0.455,3.447l-0.495,3.723l-1.104,8.222l-1.244,9.19l-1.373,10.071l-1.489,10.864l-1.592,11.569l-1.683,12.187l-1.762,12.718l-1.828,13.161l-1.881,13.517l-1.922,13.786l-3.916,28.025l-3.93,28.048l-3.843,27.371l-3.655,25.993l-3.368,23.916l-2.981,21.138l-4.397,31.14l-1.168,8.26l68.105,24.31l1.446,0.882l0.975,1.384l0.345,1.658l0,12.156l-0.355,1.681l-1.002,1.395l-1.48,0.872l-1.706,0.201l-69.895,-6.331l-0.05,0.135l-0.395,1.088l-0.443,1.253l-0.491,1.419l-0.26,0.765l-0.27,0.808l-0.281,0.848l-0.29,0.887l-0.298,0.927l-0.307,0.966l-0.315,1.005l-0.322,1.043l-0.329,1.082l-0.336,1.12l-0.342,1.159l-0.347,1.195l-0.353,1.234l-0.358,1.27l-0.362,1.308l-0.367,1.344l-0.369,1.382l-0.373,1.417l-0.376,1.454l-0.377,1.489l-0.38,1.526l-0.38,1.56l-0.382,1.596l-0.382,1.632l-0.382,1.665l-0.382,1.701l-0.381,1.735l-0.379,1.768l-0.378,1.803l-0.376,1.837l-0.373,1.87l-0.37,1.903l-0.366,1.936l-0.363,1.969l-0.358,2.001l-0.353,2.034l-0.349,2.066l-0.342,2.097l-0.337,2.13l-0.329,2.16l-0.323,2.192l-0.316,2.223l-0.308,2.257l-0.15,1.135l-0.149,1.146l-0.146,1.153l-0.144,1.161l-0.142,1.169l-0.14,1.18l-0.321,2.728l-0.33,2.768l-0.339,2.8l-0.35,2.831l-0.363,2.859l-0.376,2.883l-0.194,1.453l-0.198,1.456l-0.203,1.462l-0.206,1.467l-0.212,1.471l-0.216,1.475l-0.221,1.48l-0.227,1.483l-0.231,1.486l-0.238,1.489l-0.243,1.492l-0.249,1.495l-0.256,1.496l-0.262,1.498l-0.268,1.5l-0.275,1.501l-0.282,1.502l-0.289,1.503l-0.297,1.503l-0.304,1.502l-0.312,1.503l-0.319,1.502l-0.328,1.501l-0.337,1.5l-0.344,1.498l-0.354,1.497l-0.362,1.494l-0.372,1.492l-0.381,1.489l-0.39,1.487l-0.401,1.483l-0.41,1.479l-0.42,1.476l-0.431,1.471l-0.441,1.467l-0.452,1.462l-0.463,1.457l-0.473,1.447l-0.243,0.728l-0.244,0.723l-0.248,0.72l-0.25,0.719l-0.253,0.718l-0.256,0.716l-0.259,0.714l-0.262,0.713l-0.265,0.711l-0.269,0.709l-0.271,0.708l-0.275,0.705l-0.277,0.704l-0.281,0.702l-0.285,0.7l-0.287,0.698l-0.291,0.695l-0.294,0.694l-0.297,0.692l-0.301,0.689l-0.304,0.688l-0.308,0.685l-0.311,0.682l-0.314,0.681l-0.318,0.678l-0.322,0.676l-0.325,0.673l-0.328,0.671l-0.333,0.669l-0.336,0.666l-0.339,0.663l-0.344,0.661l-0.347,0.658l-0.351,0.656l-0.354,0.652l-0.359,0.65l-0.362,0.647l-0.366,0.645l-0.37,0.641l-0.374,0.638l-0.378,0.636l-0.382,0.632l-0.386,0.629l-0.39,0.627l-0.394,0.623l-0.398,0.619l-0.402,0.617l-0.407,0.614l-0.411,0.61l-0.414,0.606l-0.42,0.604l-0.423,0.6l-0.427,0.596l-0.432,0.593l-0.437,0.589l-0.44,0.586l-0.446,0.582l-0.449,0.578l-0.454,0.574l-0.459,0.571l-0.463,0.567l-0.467,0.563l-0.472,0.559l-0.477,0.555l-0.481,0.551l-0.486,0.547l-0.491,0.542l-0.495,0.539l-0.5,0.534l-0.505,0.531l-0.51,0.525l-0.514,0.522l-0.519,0.517l-0.524,0.512l-0.529,0.508l-0.534,0.503l-0.538,0.499l-0.544,0.495l-0.548,0.489l-0.554,0.485l-0.558,0.48l-0.564,0.475l-0.568,0.47l-0.574,0.465l-0.578,0.46l-0.584,0.455l-0.589,0.45l-0.593,0.445l-0.599,0.44l-0.605,0.434l-0.609,0.43l-0.615,0.423l-0.619,0.419l-0.625,0.413l-0.63,0.407l-0.636,0.402l-0.64,0.396l-0.646,0.391l-0.652,0.385l-0.656,0.379l-0.662,0.374l-0.667,0.368l-0.673,0.361l-0.677,0.356l-0.684,0.35l-0.688,0.344l-0.694,0.338l-0.699,0.332l-0.705,0.326l-0.711,0.319l-0.715,0.313l-0.721,0.307l-0.727,0.301l-0.732,0.294l-0.737,0.288l-0.743,0.282l-0.748,0.275l-0.754,0.269l-0.759,0.261l-0.765,0.256l-0.771,0.249l-0.776,0.242l-0.781,0.235l-0.787,0.229l-0.793,0.221l-0.798,0.215l-0.804,0.209l-0.809,0.201l-0.815,0.194l-0.821,0.187l-0.826,0.181l-0.832,0.173l-0.838,0.166l-0.843,0.16l-0.849,0.152l-0.855,0.144l-0.86,0.138l-0.866,0.13l-0.872,0.123l-0.878,0.116l-0.883,0.109l-0.889,0.101l-0.896,0.094l-0.9,0.086l-0.907,0.079l-0.913,0.071l-0.918,0.064l-0.924,0.056l-0.931,0.048l-0.936,0.041l-0.942,0.034l-0.948,0.025l-0.954,0.018l-0.96,0.01l-0.966,0.003l-0.974,-0.006l-0.978,-0.014l-0.974,-0.024l-0.969,-0.033l-0.964,-0.042l-0.958,-0.052l-0.953,-0.062l-0.947,-0.07l-0.942,-0.08l-0.937,-0.089l-0.931,-0.098l-0.926,-0.107l-0.92,-0.117l-0.914,-0.125l-0.91,-0.134l-0.904,-0.143l-0.898,-0.153l-0.893,-0.161l-0.887,-0.17l-0.882,-0.178l-0.877,-0.188l-0.871,-0.196l-0.865,-0.205l-0.86,-0.213l-0.854,-0.222l-0.849,-0.23l-0.843,-0.239l-0.838,-0.247l-0.832,-0.256l-0.826,-0.264l-0.821,-0.272l-0.815,-0.28l-0.81,-0.289l-0.804,-0.296l-0.798,-0.305l-0.793,-0.313l-0.787,-0.32l-0.782,-0.329l-0.775,-0.336l-0.77,-0.344l-0.765,-0.352l-0.759,-0.36l-0.753,-0.367l-0.747,-0.375l-0.742,-0.382l-0.735,-0.39l-0.731,-0.398l-0.724,-0.404l-0.719,-0.412l-0.712,-0.419l-0.708,-0.427l-0.701,-0.433l-0.696,-0.441l-0.689,-0.447l-0.684,-0.454l-0.679,-0.462l-0.672,-0.468l-0.667,-0.475l-0.661,-0.482l-0.655,-0.488l-0.649,-0.496l-0.644,-0.501l-0.638,-0.508l-0.632,-0.515l-0.626,-0.52l-0.62,-0.527l-0.615,-0.534l-0.609,-0.54l-0.603,-0.545l-0.597,-0.552l-0.592,-0.558l-0.586,-0.564l-0.58,-0.57l-0.574,-0.575l-0.568,-0.581l-0.563,-0.587l-0.557,-0.593l-0.551,-0.599l-0.546,-0.603l-0.539,-0.61l-0.534,-0.615l-0.529,-0.62l-0.522,-0.625l-0.517,-0.631l-0.511,-0.636l-0.506,-0.642l-0.499,-0.646l-0.495,-0.651l-0.488,-0.657l-0.483,-0.661l-0.477,-0.666l-0.472,-0.671l-0.466,-0.676l-0.46,-0.681l-0.455,-0.685l-0.449,-0.69l-0.443,-0.694l-0.438,-0.699l-0.432,-0.704l-0.427,-0.708l-0.421,-0.712l-0.416,-0.716l-0.41,-0.721l-0.405,-0.725l-0.399,-0.729l-0.393,-0.733l-0.388,-0.737l-0.383,-0.741l-0.377,-0.746l-0.372,-0.749l-0.366,-0.753l-0.361,-0.756l-0.355,-0.761l-0.35,-0.764l-0.344,-0.768l-0.34,-0.771l-0.333,-0.775l-0.329,-0.779l-0.322,-0.781l-0.318,-0.786l-0.312,-0.789l-0.307,-0.791l-0.302,-0.796l-0.296,-0.798l-0.291,-0.802l-0.285,-0.804l-0.281,-0.808l-0.274,-0.811l-0.27,-0.814l-0.265,-0.817l-0.259,-0.819l-0.254,-0.822l-0.248,-0.826l-0.244,-0.827l-0.238,-0.831l-0.233,-0.833l-0.228,-0.836l-0.222,-0.839l-0.218,-0.841l-0.212,-0.843l-0.207,-0.846l-0.202,-0.848l-0.197,-0.85l-0.191,-0.853l-0.187,-0.855l-0.181,-0.857l-0.176,-0.859l-0.171,-0.861l-0.166,-0.864l-0.161,-0.865l-0.155,-0.867l-0.151,-0.869l-0.146,-0.871l-0.14,-0.873l-0.136,-0.875l-0.13,-0.876l-0.125,-0.878l-0.121,-0.879l-0.115,-0.881l-0.11,-0.883l-0.105,-0.884l-0.1,-0.886l-0.095,-0.887l-0.091,-0.888l-0.085,-0.89l-0.08,-0.89l-0.075,-0.893l-0.07,-0.893l-0.066,-0.894l-0.06,-0.895l-0.055,-0.897l-0.051,-0.897l-0.045,-0.899l-0.041,-0.899l-0.035,-0.9l-0.031,-0.901l-0.026,-0.901l-0.021,-0.903l-0.016,-0.903l-0.011,-0.903l-0.006,-0.904l-0.001,-0.905l0.004,-0.905l0.008,-0.905l0.013,-0.906l0.019,-0.907l0.023,-0.906l0.028,-0.907l0.032,-0.907l0.038,-0.907l0.043,-0.907l0.047,-0.908l0.052,-0.907l0.057,-0.907l0.062,-0.907l0.066,-0.907l0.072,-0.907l0.076,-0.907l0.081,-0.906l0.086,-0.907l0.09,-0.905l0.095,-0.906l0.1,-0.905l0.105,-0.904l0.11,-0.904l0.114,-0.904l0.12,-0.902l0.123,-0.902l0.129,-0.902l0.133,-0.9l0.139,-0.9l0.142,-0.899l0.148,-0.898l0.152,-0.897l0.157,-0.896l0.162,-0.895l0.167,-0.894l0.171,-0.893l0.176,-0.891l0.18,-0.891l0.185,-0.889l0.19,-0.888l0.195,-0.886l0.199,-0.885l0.204,-0.884l0.209,-0.882l0.213,-0.88l0.218,-0.879l0.223,-0.877l0.227,-0.876l0.232,-0.874l0.237,-0.872l0.241,-0.87l0.246,-0.869l0.251,-0.866l0.255,-0.865l0.26,-0.862l0.265,-0.861l0.269,-0.858l0.274,-0.857l0.278,-0.854l0.283,-0.851l0.288,-0.85l0.292,-0.847l0.297,-0.845l0.301,-0.842l0.306,-0.841l0.311,-0.837l0.315,-0.835l0.32,-0.832l0.325,-0.83l0.329,-0.826l0.333,-0.825l0.339,-0.821l0.342,-0.818l0.348,-0.816l0.352,-0.814l0.358,-0.81l0.362,-0.806l0.366,-0.8l0.37,-0.794l0.374,-0.788l0.378,-0.783l0.382,-0.777l0.386,-0.771l0.39,-0.765l0.394,-0.76l0.398,-0.754l0.402,-0.748l0.405,-0.743l0.409,-0.737l0.413,-0.731l0.416,-0.726l0.421,-0.72l0.423,-0.714l0.428,-0.709l0.431,-0.704l0.434,-0.697l0.438,-0.692l0.441,-0.687l0.445,-0.681l0.448,-0.676l0.452,-0.67l0.454,-0.664l0.459,-0.659l0.461,-0.654l0.464,-0.648l0.468,-0.643l0.471,-0.637l0.474,-0.632l0.477,-0.626l0.48,-0.621l0.483,-0.616l0.486,-0.61l0.489,-0.605l0.492,-0.6l0.495,-0.594l0.497,-0.589l0.501,-0.583l0.503,-0.579l0.506,-0.573l0.508,-0.567l0.511,-0.563l0.514,-0.557l0.516,-0.552l0.519,-0.547l0.522,-0.542l0.524,-0.536l0.526,-0.531l0.529,-0.526l0.531,-0.521l0.533,-0.516l0.536,-0.511l0.538,-0.505l0.54,-0.501l0.543,-0.495l0.544,-0.49l0.547,-0.486l0.549,-0.48l0.551,-0.475l0.552,-0.47l0.555,-0.466l0.557,-0.46l0.559,-0.455l0.56,-0.45l0.563,-0.446l0.564,-0.441l0.566,-0.435l0.568,-0.431l0.569,-0.426l0.571,-0.421l0.573,-0.416l0.574,-0.411l0.576,-0.407l0.577,-0.402l0.579,-0.397l0.58,-0.392l0.582,-0.388l0.583,-0.382l0.585,-0.378l0.586,-0.374l0.587,-0.368l0.588,-0.364l0.589,-0.36l0.591,-0.355l0.592,-0.35l0.593,-0.345l0.594,-0.341l0.595,-0.337l0.596,-0.332l0.597,-0.327l0.598,-0.323l0.599,-0.318l0.599,-0.314l0.601,-0.309l0.601,-0.305l0.602,-0.301l0.603,-0.296l0.604,-0.291l0.604,-0.288l0.605,-0.282l0.605,-0.279l0.606,-0.274l0.606,-0.27l0.607,-0.266l0.608,-0.261l0.608,-0.257l0.608,-0.253l0.609,-0.249l0.609,-0.244l0.609,-0.24l0.609,-0.236l0.61,-0.232l0.61,-0.228l0.61,-0.224l0.61,-0.219l0.61,-0.216l0.611,-0.211l0.61,-0.207l0.61,-0.203l0.611,-0.199l0.61,-0.196l0.61,-0.191l0.61,-0.187l0.61,-0.183l0.61,-0.18l0.61,-0.175l0.608,-0.171l0.609,-0.168l0.609,-0.164l0.608,-0.16l0.608,-0.156l0.607,-0.152l0.607,-0.148l0.607,-0.145l0.605,-0.141l0.606,-0.137l0.605,-0.133l0.604,-0.13l0.603,-0.126l0.603,-0.122l0.602,-0.118l0.601,-0.115l0.601,-0.112l0.6,-0.107l0.599,-0.104l0.598,-0.101l0.597,-0.097l0.596,-0.093l0.596,-0.09l0.594,-0.086l0.593,-0.083l0.592,-0.079l0.591,-0.076l0.59,-0.072l0.589,-0.069l0.588,-0.065l0.586,-0.063l0.591,-0.059l1.161,-0.106l1.161,-0.094l1.156,-0.081l1.15,-0.067l1.143,-0.055l1.138,-0.041l1.13,-0.029l1.125,-0.016l1.117,-0.004l1.109,0.009l1.103,0.02l1.094,0.034l1.086,0.045l1.079,0.057l1.069,0.068l1.061,0.081l1.053,0.092l1.043,0.104l1.033,0.114l1.024,0.127l1.014,0.137l1.004,0.148l0.994,0.159l0.983,0.17l0.973,0.181l0.961,0.191l0.95,0.202l0.939,0.213l0.928,0.223l0.915,0.233l0.903,0.244l0.891,0.253l0.872,0.262l0.442,0.138l0.431,0.138l0.428,0.14l0.425,0.144l0.422,0.145l0.419,0.149l0.414,0.15l0.412,0.153l0.408,0.156l0.405,0.158l0.401,0.16l0.398,0.164l0.395,0.165l0.391,0.168l0.387,0.17l0.384,0.173l0.381,0.176l0.376,0.178l0.374,0.18l0.369,0.183l0.365,0.185l0.362,0.188l0.359,0.19l0.354,0.193l0.351,0.196l0.347,0.198l0.342,0.2l0.32,0.191l0.575,0.345l0.551,0.321l0.545,0.309l0.54,0.298l0.535,0.286l0.53,0.276l0.525,0.264l0.519,0.252l0.514,0.241l0.508,0.23l0.503,0.218l0.497,0.208l0.492,0.196l0.486,0.185l0.481,0.174l0.475,0.163l0.468,0.153l0.464,0.141l0.457,0.131l0.451,0.12l0.446,0.11l0.44,0.1l0.434,0.089l0.428,0.079l0.423,0.069l0.416,0.059l0.411,0.049l0.406,0.039l0.399,0.03l0.395,0.021l0.389,0.011l0.383,0.002l0.378,-0.008l0.374,-0.016l0.369,-0.025l0.364,-0.034l0.359,-0.043l0.357,-0.052l0.351,-0.06l0.347,-0.069l0.344,-0.077l0.341,-0.087l0.338,-0.095l0.335,-0.104l0.332,-0.113l0.33,-0.121l0.327,-0.131l0.325,-0.14l0.324,-0.149l0.322,-0.159l0.32,-0.168l0.32,-0.178l0.318,-0.189l0.316,-0.198l0.316,-0.208l0.315,-0.219l0.313,-0.23l0.314,-0.241l0.312,-0.251l0.311,-0.263l0.31,-0.274l0.31,-0.286l0.309,-0.297l0.307,-0.309l0.307,-0.321l0.306,-0.333l0.305,-0.345l0.303,-0.357l0.303,-0.369l0.301,-0.382l0.3,-0.394l0.298,-0.407l0.297,-0.419l0.295,-0.432l0.293,-0.445l0.292,-0.458l0.29,-0.47l0.288,-0.483l0.287,-0.495l0.284,-0.509l0.282,-0.521l0.28,-0.534l0.277,-0.547l0.276,-0.56l0.273,-0.572l0.27,-0.586l0.269,-0.598l0.266,-0.611l0.263,-0.624l0.26,-0.637l0.258,-0.649l0.256,-0.663l0.252,-0.675l0.25,-0.688l0.247,-0.701l0.244,-0.713l0.242,-0.727l0.238,-0.738l0.236,-0.752l0.233,-0.765l0.229,-0.777l0.227,-0.79l0.224,-0.802l0.221,-0.815l0.217,-0.828l0.215,-0.841l0.212,-0.853l0.208,-0.866l0.205,-0.878l0.203,-0.892l0.199,-0.903l0.196,-0.917l0.192,-0.929l0.19,-0.941l0.186,-0.954l0.183,-0.967l0.18,-0.979l0.177,-0.992l0.174,-1.005l0.17,-1.016l0.167,-1.03l0.164,-1.042l0.161,-1.055l0.157,-1.067l0.154,-1.079l0.151,-1.093l0.148,-1.104l0.145,-1.123l1.808,-14.183l2.988,-23.372l8.8,-68.72l11.373,-88.735l12.513,-97.602l22.726,-177.207l10.119,-78.889l0.369,-1.257l0.741,-1.08l29.17,-30.752l7.974,-281.192l0.422,-1.711l1.091,-1.384l1.565,-0.809l1.76,-0.09l1.64,0.646Zm-10.332,286.251l-30.267,31.908l-10.119,78.889l-22.726,177.207l-12.514,97.602l-11.372,88.734l-8.8,68.72l-2.988,23.371l-1.809,14.185l-0.146,1.135l-0.15,1.123l-0.154,1.111l-0.156,1.099l-0.161,1.086l-0.163,1.074l-0.167,1.062l-0.171,1.05l-0.174,1.038l-0.177,1.026l-0.18,1.014l-0.185,1.002l-0.187,0.989l-0.191,0.978l-0.194,0.965l-0.198,0.953l-0.202,0.941l-0.204,0.93l-0.208,0.917l-0.212,0.905l-0.215,0.893l-0.218,0.881l-0.222,0.869l-0.226,0.857l-0.228,0.845l-0.233,0.833l-0.235,0.821l-0.239,0.809l-0.243,0.797l-0.246,0.785l-0.25,0.773l-0.252,0.761l-0.257,0.749l-0.26,0.737l-0.263,0.725l-0.267,0.714l-0.27,0.701l-0.274,0.689l-0.278,0.678l-0.28,0.665l-0.285,0.654l-0.287,0.642l-0.292,0.63l-0.294,0.618l-0.299,0.606l-0.301,0.594l-0.306,0.583l-0.308,0.57l-0.312,0.559l-0.316,0.547l-0.319,0.535l-0.323,0.523l-0.326,0.511l-0.33,0.5l-0.333,0.488l-0.337,0.475l-0.341,0.465l-0.343,0.452l-0.348,0.44l-0.351,0.429l-0.354,0.417l-0.358,0.405l-0.362,0.394l-0.365,0.382l-0.368,0.37l-0.372,0.358l-0.376,0.346l-0.379,0.335l-0.383,0.323l-0.386,0.312l-0.39,0.299l-0.393,0.288l-0.397,0.276l-0.401,0.265l-0.404,0.253l-0.407,0.241l-0.412,0.23l-0.414,0.218l-0.419,0.206l-0.422,0.194l-0.425,0.183l-0.429,0.172l-0.433,0.159l-0.436,0.148l-0.44,0.137l-0.443,0.125l-0.447,0.113l-0.451,0.102l-0.454,0.09l-0.457,0.078l-0.462,0.067l-0.465,0.056l-0.468,0.043l-0.472,0.033l-0.476,0.02l-0.479,0.009l-0.483,-0.002l-0.487,-0.014l-0.49,-0.025l-0.494,-0.037l-0.497,-0.049l-0.501,-0.059l-0.505,-0.072l-0.508,-0.083l-0.512,-0.094l-0.515,-0.106l-0.52,-0.117l-0.522,-0.129l-0.527,-0.14l-0.53,-0.152l-0.533,-0.163l-0.538,-0.175l-0.541,-0.186l-0.544,-0.197l-0.549,-0.209l-0.552,-0.22l-0.555,-0.232l-0.559,-0.243l-0.563,-0.254l-0.567,-0.266l-0.57,-0.277l-0.574,-0.289l-0.577,-0.3l-0.582,-0.311l-0.584,-0.323l-0.589,-0.334l-0.592,-0.345l-0.596,-0.357l-0.301,-0.18l-0.305,-0.178l-0.31,-0.177l-0.314,-0.175l-0.318,-0.173l-0.322,-0.171l-0.326,-0.169l-0.33,-0.168l-0.335,-0.165l-0.338,-0.164l-0.343,-0.161l-0.346,-0.16l-0.35,-0.158l-0.354,-0.156l-0.358,-0.154l-0.362,-0.151l-0.366,-0.15l-0.369,-0.148l-0.374,-0.146l-0.377,-0.143l-0.38,-0.142l-0.384,-0.139l-0.388,-0.138l-0.391,-0.135l-0.395,-0.133l-0.399,-0.131l-0.402,-0.129l-0.405,-0.126l-0.821,-0.247l-0.834,-0.237l-0.847,-0.228l-0.861,-0.22l-0.872,-0.209l-0.886,-0.201l-0.897,-0.19l-0.909,-0.181l-0.921,-0.172l-0.932,-0.161l-0.943,-0.151l-0.954,-0.141l-0.964,-0.13l-0.975,-0.12l-0.984,-0.11l-0.995,-0.098l-1.004,-0.088l-1.013,-0.077l-1.022,-0.066l-1.031,-0.054l-1.039,-0.043l-1.048,-0.032l-1.056,-0.02l-1.063,-0.008l-1.07,0.003l-1.078,0.016l-1.085,0.027l-1.091,0.04l-1.098,0.053l-1.104,0.064l-1.11,0.078l-1.116,0.09l-1.12,0.103l-0.563,0.056l-0.563,0.06l-0.565,0.063l-0.566,0.066l-0.567,0.069l-0.568,0.073l-0.57,0.077l-0.57,0.079l-0.572,0.083l-0.572,0.086l-0.573,0.09l-0.574,0.093l-0.576,0.097l-0.576,0.1l-0.576,0.103l-0.578,0.107l-0.578,0.111l-0.579,0.114l-0.58,0.117l-0.581,0.122l-0.581,0.124l-0.581,0.129l-0.583,0.131l-0.582,0.136l-0.584,0.139l-0.583,0.143l-0.585,0.146l-0.584,0.15l-0.585,0.154l-0.585,0.157l-0.586,0.162l-0.586,0.164l-0.586,0.169l-0.586,0.173l-0.587,0.176l-0.586,0.18l-0.587,0.184l-0.587,0.187l-0.587,0.192l-0.587,0.195l-0.587,0.2l-0.587,0.203l-0.586,0.207l-0.587,0.211l-0.586,0.215l-0.587,0.219l-0.586,0.223l-0.586,0.227l-0.585,0.23l-0.586,0.235l-0.584,0.239l-0.585,0.243l-0.584,0.247l-0.584,0.251l-0.583,0.256l-0.583,0.259l-0.582,0.264l-0.582,0.267l-0.581,0.272l-0.58,0.276l-0.58,0.28l-0.579,0.285l-0.578,0.288l-0.578,0.293l-0.577,0.297l-0.576,0.302l-0.575,0.305l-0.574,0.31l-0.573,0.315l-0.572,0.318l-0.572,0.323l-0.57,0.328l-0.569,0.331l-0.568,0.336l-0.568,0.341l-0.565,0.345l-0.565,0.349l-0.564,0.354l-0.562,0.359l-0.561,0.363l-0.56,0.367l-0.558,0.372l-0.557,0.376l-0.555,0.381l-0.555,0.386l-0.552,0.39l-0.551,0.395l-0.55,0.399l-0.548,0.404l-0.546,0.409l-0.545,0.413l-0.543,0.419l-0.542,0.422l-0.539,0.428l-0.538,0.432l-0.536,0.437l-0.535,0.442l-0.532,0.446l-0.531,0.451l-0.528,0.456l-0.527,0.461l-0.525,0.466l-0.522,0.471l-0.521,0.475l-0.519,0.48l-0.516,0.486l-0.514,0.49l-0.512,0.495l-0.51,0.5l-0.508,0.505l-0.505,0.51l-0.503,0.515l-0.501,0.52l-0.498,0.525l-0.496,0.53l-0.493,0.535l-0.491,0.541l-0.489,0.545l-0.486,0.551l-0.483,0.555l-0.481,0.561l-0.478,0.566l-0.475,0.571l-0.473,0.576l-0.47,0.581l-0.467,0.587l-0.465,0.592l-0.461,0.597l-0.459,0.602l-0.456,0.608l-0.453,0.613l-0.45,0.618l-0.447,0.624l-0.444,0.629l-0.441,0.634l-0.437,0.64l-0.435,0.645l-0.431,0.651l-0.429,0.656l-0.425,0.661l-0.422,0.667l-0.418,0.672l-0.416,0.678l-0.412,0.683l-0.408,0.689l-0.405,0.694l-0.402,0.7l-0.398,0.706l-0.395,0.711l-0.391,0.716l-0.388,0.722l-0.383,0.728l-0.381,0.734l-0.376,0.739l-0.373,0.745l-0.37,0.75l-0.365,0.757l-0.362,0.762l-0.358,0.767l-0.354,0.774l-0.35,0.779l-0.346,0.785l-0.342,0.79l-0.337,0.792l-0.333,0.795l-0.329,0.799l-0.325,0.801l-0.319,0.804l-0.316,0.806l-0.311,0.81l-0.307,0.812l-0.302,0.815l-0.298,0.817l-0.293,0.82l-0.289,0.822l-0.285,0.824l-0.28,0.827l-0.275,0.83l-0.271,0.832l-0.267,0.833l-0.262,0.836l-0.258,0.839l-0.253,0.84l-0.249,0.842l-0.244,0.845l-0.239,0.846l-0.236,0.848l-0.23,0.85l-0.226,0.852l-0.222,0.854l-0.217,0.855l-0.213,0.857l-0.208,0.859l-0.203,0.86l-0.199,0.861l-0.195,0.864l-0.19,0.864l-0.185,0.866l-0.181,0.867l-0.176,0.869l-0.171,0.87l-0.167,0.871l-0.163,0.872l-0.157,0.873l-0.154,0.875l-0.148,0.875l-0.144,0.876l-0.14,0.877l-0.134,0.878l-0.131,0.879l-0.125,0.88l-0.121,0.88l-0.116,0.881l-0.112,0.881l-0.107,0.883l-0.102,0.882l-0.098,0.883l-0.093,0.884l-0.088,0.884l-0.084,0.884l-0.079,0.885l-0.074,0.884l-0.07,0.885l-0.065,0.886l-0.06,0.885l-0.056,0.885l-0.051,0.885l-0.046,0.886l-0.041,0.885l-0.037,0.885l-0.032,0.885l-0.027,0.884l-0.023,0.884l-0.017,0.884l-0.014,0.884l-0.008,0.883l-0.003,0.883l0.001,0.882l0.006,0.881l0.011,0.881l0.015,0.881l0.021,0.879l0.025,0.879l0.03,0.878l0.034,0.877l0.04,0.876l0.044,0.876l0.049,0.874l0.054,0.873l0.059,0.872l0.063,0.871l0.069,0.87l0.073,0.869l0.078,0.867l0.083,0.866l0.088,0.865l0.092,0.863l0.098,0.861l0.102,0.861l0.107,0.858l0.112,0.857l0.117,0.856l0.122,0.853l0.127,0.852l0.132,0.85l0.136,0.848l0.142,0.847l0.146,0.844l0.151,0.842l0.156,0.841l0.161,0.838l0.166,0.836l0.171,0.834l0.176,0.831l0.181,0.83l0.186,0.827l0.191,0.824l0.195,0.823l0.201,0.819l0.206,0.818l0.21,0.814l0.216,0.812l0.22,0.81l0.226,0.806l0.231,0.804l0.235,0.802l0.241,0.798l0.245,0.795l0.251,0.793l0.255,0.789l0.261,0.786l0.266,0.784l0.27,0.78l0.276,0.777l0.281,0.774l0.286,0.77l0.291,0.767l0.296,0.764l0.301,0.76l0.306,0.757l0.311,0.754l0.316,0.749l0.321,0.747l0.327,0.742l0.331,0.739l0.337,0.735l0.341,0.731l0.347,0.728l0.352,0.723l0.357,0.72l0.362,0.715l0.367,0.712l0.373,0.707l0.377,0.703l0.383,0.7l0.388,0.694l0.393,0.691l0.398,0.686l0.403,0.682l0.409,0.678l0.413,0.673l0.419,0.668l0.424,0.664l0.429,0.659l0.435,0.655l0.439,0.65l0.445,0.645l0.45,0.641l0.455,0.635l0.461,0.631l0.466,0.626l0.47,0.62l0.477,0.616l0.481,0.611l0.486,0.605l0.492,0.6l0.497,0.595l0.503,0.59l0.507,0.585l0.513,0.579l0.518,0.573l0.524,0.569l0.528,0.562l0.534,0.557l0.54,0.552l0.544,0.546l0.55,0.54l0.555,0.534l0.561,0.529l0.566,0.523l0.571,0.516l0.576,0.511l0.582,0.505l0.587,0.499l0.593,0.493l0.598,0.487l0.603,0.48l0.608,0.474l0.614,0.468l0.619,0.462l0.625,0.455l0.63,0.449l0.636,0.443l0.64,0.436l0.646,0.429l0.652,0.423l0.657,0.416l0.662,0.409l0.668,0.403l0.673,0.395l0.679,0.389l0.684,0.383l0.69,0.375l0.695,0.368l0.7,0.361l0.706,0.354l0.711,0.347l0.717,0.34l0.722,0.332l0.727,0.325l0.734,0.318l0.738,0.311l0.744,0.303l0.75,0.296l0.755,0.288l0.76,0.28l0.767,0.273l0.771,0.266l0.777,0.257l0.783,0.25l0.788,0.242l0.793,0.234l0.8,0.227l0.804,0.218l0.811,0.211l0.815,0.202l0.822,0.194l0.827,0.186l0.832,0.178l0.838,0.17l0.844,0.162l0.849,0.153l0.855,0.145l0.86,0.136l0.866,0.128l0.871,0.119l0.877,0.111l0.883,0.103l0.888,0.093l0.894,0.085l0.9,0.076l0.905,0.068l0.911,0.058l0.917,0.05l0.922,0.041l0.927,0.031l0.934,0.023l0.939,0.014l0.939,0.005l0.932,-0.002l0.926,-0.01l0.92,-0.017l0.913,-0.025l0.908,-0.032l0.901,-0.04l0.895,-0.046l0.888,-0.054l0.883,-0.062l0.876,-0.068l0.871,-0.076l0.864,-0.082l0.858,-0.09l0.853,-0.097l0.846,-0.104l0.84,-0.111l0.834,-0.118l0.829,-0.124l0.822,-0.132l0.817,-0.138l0.81,-0.145l0.805,-0.152l0.799,-0.159l0.794,-0.165l0.787,-0.172l0.782,-0.179l0.776,-0.185l0.77,-0.191l0.765,-0.198l0.759,-0.205l0.753,-0.21l0.748,-0.218l0.742,-0.223l0.737,-0.23l0.731,-0.236l0.725,-0.242l0.72,-0.249l0.715,-0.254l0.709,-0.261l0.704,-0.266l0.698,-0.273l0.693,-0.279l0.688,-0.284l0.682,-0.291l0.677,-0.296l0.672,-0.303l0.666,-0.307l0.662,-0.314l0.656,-0.32l0.651,-0.325l0.645,-0.33l0.641,-0.337l0.635,-0.342l0.63,-0.347l0.626,-0.353l0.62,-0.358l0.615,-0.364l0.61,-0.369l0.605,-0.374l0.601,-0.38l0.595,-0.385l0.59,-0.39l0.586,-0.395l0.581,-0.401l0.575,-0.405l0.571,-0.411l0.567,-0.416l0.561,-0.42l0.557,-0.426l0.552,-0.43l0.547,-0.436l0.543,-0.44l0.538,-0.445l0.533,-0.449l0.529,-0.455l0.524,-0.459l0.52,-0.463l0.515,-0.469l0.51,-0.473l0.506,-0.477l0.502,-0.482l0.497,-0.486l0.493,-0.491l0.488,-0.495l0.484,-0.499l0.48,-0.504l0.475,-0.508l0.471,-0.512l0.467,-0.516l0.462,-0.521l0.459,-0.524l0.454,-0.529l0.449,-0.533l0.446,-0.536l0.442,-0.541l0.437,-0.544l0.433,-0.549l0.43,-0.552l0.425,-0.556l0.421,-0.56l0.417,-0.563l0.414,-0.567l0.409,-0.571l0.405,-0.574l0.402,-0.578l0.397,-0.582l0.394,-0.585l0.39,-0.588l0.386,-0.592l0.382,-0.595l0.379,-0.598l0.375,-0.602l0.371,-0.605l0.367,-0.608l0.364,-0.612l0.36,-0.615l0.356,-0.617l0.353,-0.621l0.349,-0.624l0.346,-0.627l0.342,-0.629l0.339,-0.633l0.335,-0.635l0.332,-0.639l0.328,-0.641l0.325,-0.644l0.321,-0.646l0.318,-0.65l0.315,-0.652l0.311,-0.654l0.308,-0.657l0.305,-0.66l0.302,-0.662l0.298,-0.665l0.295,-0.667l0.292,-0.669l0.289,-0.672l0.286,-0.674l0.282,-0.676l0.28,-0.679l0.276,-0.68l0.274,-0.683l0.27,-0.685l0.267,-0.687l0.265,-0.689l0.261,-0.691l0.259,-0.693l0.255,-0.695l0.253,-0.697l0.25,-0.698l0.247,-0.701l0.244,-0.702l0.241,-0.704l0.239,-0.706l0.236,-0.707l0.464,-1.419l0.453,-1.425l0.442,-1.432l0.433,-1.436l0.422,-1.442l0.412,-1.447l0.402,-1.452l0.393,-1.456l0.384,-1.459l0.374,-1.464l0.365,-1.467l0.357,-1.469l0.348,-1.473l0.339,-1.475l0.331,-1.477l0.324,-1.48l0.315,-1.48l0.307,-1.482l0.3,-1.483l0.293,-1.483l0.286,-1.484l0.278,-1.484l0.272,-1.483l0.265,-1.483l0.259,-1.482l0.253,-1.481l0.247,-1.479l0.241,-1.477l0.235,-1.475l0.229,-1.473l0.225,-1.47l0.219,-1.467l0.215,-1.463l0.21,-1.46l0.205,-1.456l0.201,-1.452l0.196,-1.447l0.193,-1.442l0.375,-2.868l0.36,-2.846l0.349,-2.819l0.338,-2.791l0.329,-2.761l0.321,-2.727l0.141,-1.188l0.143,-1.179l0.146,-1.173l0.147,-1.164l0.151,-1.157l0.152,-1.15l0.31,-2.275l0.319,-2.245l0.326,-2.214l0.333,-2.182l0.34,-2.15l0.346,-2.119l0.352,-2.087l0.357,-2.055l0.362,-2.022l0.366,-1.989l0.37,-1.956l0.374,-1.924l0.377,-1.889l0.38,-1.857l0.382,-1.822l0.383,-1.788l0.386,-1.754l0.385,-1.72l0.387,-1.684l0.386,-1.65l0.386,-1.615l0.386,-1.579l0.384,-1.544l0.382,-1.507l0.38,-1.472l0.377,-1.435l0.375,-1.399l0.371,-1.362l0.367,-1.325l0.362,-1.287l0.358,-1.251l0.353,-1.212l0.347,-1.175l0.34,-1.136l0.335,-1.099l0.327,-1.059l0.319,-1.021l0.312,-0.982l0.304,-0.943l0.295,-0.903l0.285,-0.863l0.276,-0.824l0.266,-0.783l0.5,-1.445l0.454,-1.282l0.405,-1.117l0.352,-0.951l0.296,-0.781l0.237,-0.611l0.173,-0.438l0.143,-0.353l73.032,6.615l0,-12.156l-71.306,-25.452l1.644,-11.625l4.397,-31.139l2.981,-21.137l3.368,-23.915l3.655,-25.993l3.843,-27.37l3.929,-28.047l3.917,-28.023l1.921,-13.785l1.881,-13.515l1.828,-13.16l1.761,-12.717l1.683,-12.185l1.592,-11.567l1.489,-10.861l1.372,-10.067l1.244,-9.187l1.103,-8.217l0.494,-3.718l0.455,-3.443l0.413,-3.157l0.37,-2.861l0.175,-1.352l0.179,-1.349l0.182,-1.345l0.185,-1.342l0.188,-1.337l0.191,-1.334l0.194,-1.33l0.197,-1.325l0.199,-1.321l0.202,-1.317l0.205,-1.312l0.207,-1.308l0.21,-1.303l0.212,-1.298l0.431,-2.581l0.439,-2.56l0.448,-2.538l0.455,-2.516l0.462,-2.493l0.468,-2.468l0.474,-2.443l0.478,-2.417l0.484,-2.389l0.487,-2.362l0.491,-2.333l0.493,-2.303l0.496,-2.272l0.497,-2.241l0.498,-2.209l0.499,-2.175l0.498,-2.141l0.498,-2.106l0.496,-2.069l0.494,-2.033l0.492,-1.995l0.489,-1.956l0.485,-1.917l0.481,-1.876l0.476,-1.835l0.47,-1.792l0.465,-1.749l0.458,-1.705l0.451,-1.66l0.442,-1.614l0.435,-1.568l0.426,-1.519l0.416,-1.471l0.406,-1.422l0.395,-1.371l0.384,-1.32l0.372,-1.267l0.707,-2.375l0.652,-2.156l0.592,-1.929l0.529,-1.695l0.461,-1.454l0.387,-1.206l0.309,-0.95l0.227,-0.687l0.187,-0.559l45.339,-38.745l-0.897,-58.484l-0.918,-60.293l-1.054,-69.606l-0.535,-35.627l-0.518,-34.751l-0.485,-32.809l-0.434,-29.799l-0.367,-25.722l-0.153,-10.998l-0.13,-9.578l-0.105,-8.025l-0.077,-6.338l-0.048,-4.518l-0.012,-1.535l-0.005,-1.03l-0.002,-0.384l-0.007,-0.381l-0.013,-0.379l-0.016,-0.376l-0.022,-0.373l-0.026,-0.37l-0.031,-0.367l-0.035,-0.365l-0.039,-0.361l-0.044,-0.359l-0.048,-0.355l-0.052,-0.353l-0.056,-0.35l-0.059,-0.347l-0.064,-0.345l-0.068,-0.341l-0.071,-0.338l-0.075,-0.336l-0.079,-0.333l-0.082,-0.329l-0.085,-0.327l-0.089,-0.324l-0.092,-0.321l-0.095,-0.318l-0.099,-0.316l-0.101,-0.312l-0.104,-0.309l-0.107,-0.307l-0.11,-0.303l-0.113,-0.301l-0.115,-0.298l-0.118,-0.295l-0.12,-0.292l-0.123,-0.288l-0.125,-0.286l-0.128,-0.283l-0.129,-0.281l-0.132,-0.277l-0.269,-0.545l-0.276,-0.534l-0.284,-0.522l-0.289,-0.51l-0.296,-0.498l-0.3,-0.486l-0.304,-0.475l-0.308,-0.462l-0.312,-0.45l-0.314,-0.439l-0.315,-0.426l-0.317,-0.415l-0.318,-0.402l-0.317,-0.391l-0.317,-0.378l-0.316,-0.366l-0.314,-0.354l-0.311,-0.342l-0.308,-0.33l-0.305,-0.318l-0.3,-0.305l-0.295,-0.293l-0.29,-0.281l-0.283,-0.269l-0.277,-0.256l-0.269,-0.245l-0.261,-0.231l-0.252,-0.22l-0.243,-0.207l-0.456,-0.377l-0.411,-0.327l-0.362,-0.277l-0.307,-0.228l-0.247,-0.177l-0.183,-0.126l-0.152,-0.102l-8.019,282.785Zm-188.522,641.212l0.432,0.004l0.794,0.016l0.7,0.023l0.602,0.028l0.501,0.03l0.396,0.028l0.288,0.024l0.234,0.023l0.491,0.049l0.488,0.052l0.486,0.056l0.484,0.058l0.482,0.061l0.479,0.064l0.477,0.067l0.475,0.07l0.473,0.073l0.47,0.076l0.468,0.079l0.465,0.082l0.464,0.084l0.461,0.088l0.458,0.09l0.457,0.093l0.454,0.096l0.452,0.099l0.45,0.102l0.447,0.105l0.445,0.107l0.443,0.11l0.441,0.113l0.438,0.116l0.437,0.118l0.433,0.121l0.432,0.124l0.43,0.127l0.427,0.129l0.425,0.132l0.423,0.135l0.42,0.137l0.418,0.14l0.416,0.143l0.414,0.145l0.412,0.148l0.409,0.151l0.408,0.153l0.405,0.156l0.402,0.158l0.401,0.161l0.398,0.164l0.397,0.166l0.394,0.169l0.392,0.171l0.389,0.173l0.388,0.176l0.385,0.179l0.383,0.181l0.381,0.184l0.379,0.186l0.376,0.188l0.375,0.191l0.372,0.193l0.37,0.196l0.368,0.198l0.366,0.201l0.363,0.203l0.721,0.413l0.712,0.422l0.704,0.432l0.695,0.44l0.687,0.45l0.678,0.459l0.669,0.468l0.661,0.476l0.653,0.486l0.645,0.494l0.635,0.502l0.628,0.511l0.619,0.519l0.611,0.528l0.603,0.536l0.594,0.543l0.587,0.552l0.578,0.56l0.569,0.568l0.562,0.575l0.553,0.583l0.546,0.59l0.537,0.598l0.529,0.606l0.521,0.612l0.513,0.62l0.505,0.627l0.497,0.633l0.489,0.641l0.481,0.648l0.473,0.654l0.465,0.661l0.457,0.667l0.45,0.674l0.442,0.68l0.433,0.686l0.426,0.693l0.419,0.699l0.41,0.704l0.403,0.711l0.395,0.716l0.387,0.722l0.38,0.728l0.372,0.733l0.365,0.739l0.357,0.744l0.349,0.749l0.342,0.754l0.334,0.76l0.327,0.764l0.319,0.77l0.312,0.774l0.304,0.779l0.297,0.783l0.29,0.788l0.282,0.792l0.275,0.797l0.268,0.801l0.26,0.805l0.253,0.809l0.246,0.814l0.238,0.817l0.232,0.82l0.224,0.825l0.217,0.828l0.21,0.832l0.202,0.835l0.196,0.838l0.189,0.842l0.181,0.845l0.174,0.847l0.168,0.851l0.16,0.854l0.154,0.856l0.147,0.859l0.139,0.862l0.133,0.865l0.126,0.866l0.119,0.869l0.112,0.871l0.106,0.874l0.098,0.875l0.092,0.878l0.086,0.879l0.078,0.881l0.072,0.883l0.065,0.884l0.058,0.886l0.052,0.887l0.046,0.888l0.038,0.89l0.032,0.891l0.026,0.892l0.019,0.893l0.013,0.894l0.006,0.894l-0.001,0.895l-0.006,0.896l-0.013,0.896l-0.02,0.992l-0.024,0.991l-0.026,0.989l-0.031,0.987l-0.034,0.985l-0.038,0.984l-0.041,0.982l-0.044,0.98l-0.049,0.978l-0.052,0.976l-0.055,0.974l-0.059,0.973l-0.063,0.97l-0.067,0.968l-0.07,0.966l-0.073,0.964l-0.078,0.962l-0.081,0.96l-0.085,0.957l-0.088,0.955l-0.092,0.953l-0.096,0.95l-0.099,0.948l-0.104,0.945l-0.106,0.943l-0.111,0.94l-0.114,0.938l-0.119,0.935l-0.121,0.933l-0.126,0.929l-0.13,0.928l-0.133,0.924l-0.137,0.921l-0.141,0.919l-0.144,0.916l-0.149,0.913l-0.152,0.91l-0.156,0.906l-0.16,0.904l-0.163,0.901l-0.168,0.898l-0.171,0.894l-0.176,0.892l-0.179,0.888l-0.183,0.884l-0.187,0.882l-0.191,0.878l-0.194,0.875l-0.199,0.871l-0.203,0.868l-0.206,0.864l-0.211,0.861l-0.214,0.857l-0.218,0.854l-0.223,0.849l-0.226,0.847l-0.23,0.842l-0.235,0.839l-0.238,0.835l-0.242,0.831l-0.247,0.827l-0.25,0.823l-0.254,0.819l-0.259,0.815l-0.262,0.811l-0.266,0.807l-0.271,0.803l-0.275,0.799l-0.278,0.794l-0.283,0.791l-0.287,0.786l-0.291,0.781l-0.295,0.777l-0.299,0.773l-0.303,0.769l-0.308,0.764l-0.311,0.759l-0.316,0.755l-0.32,0.75l-0.324,0.746l-0.328,0.741l-0.333,0.736l-0.336,0.732l-0.341,0.726l-0.345,0.722l-0.35,0.717l-0.353,0.712l-0.358,0.707l-0.362,0.702l-0.366,0.698l-0.37,0.692l-0.375,0.687l-0.379,0.681l-0.383,0.677l-0.388,0.671l-0.391,0.667l-0.397,0.66l-0.4,0.656l-0.405,0.65l-0.409,0.645l-0.413,0.639l-0.418,0.634l-0.422,0.628l-0.427,0.623l-0.431,0.617l-0.435,0.611l-0.439,0.606l-0.444,0.6l-0.449,0.594l-0.453,0.588l-0.457,0.583l-0.461,0.577l-0.467,0.57l-0.47,0.565l-0.475,0.559l-0.479,0.553l-0.484,0.546l-0.489,0.541l-0.493,0.534l-0.497,0.529l-0.502,0.522l-0.506,0.515l-0.511,0.51l-0.515,0.503l-0.52,0.497l-0.525,0.49l-0.529,0.484l-0.533,0.477l-0.295,0.258l-0.302,0.257l-0.307,0.257l-0.313,0.255l-0.319,0.255l-0.325,0.254l-0.331,0.253l-0.336,0.251l-0.342,0.251l-0.347,0.25l-0.353,0.248l-0.359,0.247l-0.364,0.246l-0.369,0.245l-0.375,0.243l-0.379,0.242l-0.385,0.24l-0.39,0.24l-0.395,0.237l-0.4,0.236l-0.405,0.235l-0.41,0.232l-0.415,0.231l-0.419,0.23l-0.424,0.228l-0.429,0.225l-0.433,0.224l-0.438,0.223l-0.442,0.22l-0.447,0.218l-0.451,0.216l-0.455,0.214l-0.46,0.213l-0.464,0.209l-0.467,0.208l-0.472,0.206l-0.476,0.203l-0.48,0.201l-0.484,0.199l-0.487,0.196l-0.491,0.194l-0.495,0.191l-0.499,0.189l-0.502,0.186l-0.506,0.184l-0.509,0.181l-0.513,0.178l-0.516,0.176l-0.519,0.172l-0.522,0.17l-0.526,0.167l-0.529,0.165l-0.532,0.161l-0.534,0.158l-0.538,0.156l-0.541,0.152l-0.543,0.149l-0.546,0.146l-0.549,0.142l-0.552,0.14l-0.554,0.136l-0.557,0.133l-0.559,0.129l-0.562,0.127l-0.563,0.122l-0.567,0.119l-0.568,0.116l-0.571,0.112l-0.573,0.108l-0.574,0.105l-0.577,0.101l-0.579,0.098l-0.581,0.093l-0.582,0.09l-0.584,0.085l-0.586,0.082l-0.588,0.078l-0.589,0.074l-0.591,0.07l-0.592,0.066l-0.594,0.061l-0.595,0.058l-0.596,0.053l-0.597,0.049l-0.599,0.045l-0.6,0.04l-0.601,0.036l-0.602,0.032l-0.603,0.027l-0.603,0.022l-0.605,0.018l-0.605,0.014l-0.606,0.008l-0.607,0.004l-0.608,0l-0.607,-0.006l-0.609,-0.01l-0.608,-0.015l-0.61,-0.02l-0.609,-0.025l-0.61,-0.03l-0.61,-0.035l-0.61,-0.04l-0.61,-0.045l-0.61,-0.05l-0.61,-0.055l-0.61,-0.061l-0.609,-0.066l-0.61,-0.071l-0.609,-0.077l-0.609,-0.082l-0.609,-0.087l-0.608,-0.093l-0.607,-0.099l-0.607,-0.104l-0.607,-0.109l-0.605,-0.116l-0.605,-0.121l-0.604,-0.127l-0.604,-0.132l-0.602,-0.138l-0.601,-0.145l-0.601,-0.15l-0.599,-0.156l-0.598,-0.162l-0.597,-0.168l-0.595,-0.175l-0.594,-0.18l-0.593,-0.186l-0.592,-0.193l-0.589,-0.199l-0.589,-0.205l-0.586,-0.212l-0.585,-0.218l-0.583,-0.224l-0.582,-0.231l-0.579,-0.238l-0.578,-0.244l-0.576,-0.25l-0.573,-0.257l-0.572,-0.264l-0.569,-0.271l-0.567,-0.277l-0.565,-0.284l-0.563,-0.291l-0.56,-0.298l-0.558,-0.305l-0.555,-0.312l-0.553,-0.318l-0.55,-0.326l-0.547,-0.333l-0.545,-0.34l-0.542,-0.348l-0.538,-0.354l-0.537,-0.362l-0.533,-0.369l-0.53,-0.376l-0.527,-0.384l-0.523,-0.391l-0.521,-0.399l-0.517,-0.406l-0.514,-0.414l-0.511,-0.422l-0.507,-0.429l-0.504,-0.436l-0.5,-0.445l-0.496,-0.452l-0.493,-0.46l-0.489,-0.468l-0.486,-0.476l-0.481,-0.484l-0.478,-0.492l-0.473,-0.5l-0.47,-0.508l-0.465,-0.516l-0.461,-0.524l-0.457,-0.532l-0.453,-0.541l-0.449,-0.549l-0.444,-0.557l-0.44,-0.566l-0.435,-0.574l-0.43,-0.583l-0.427,-0.591l-0.421,-0.599l-0.417,-0.608l-0.411,-0.617l-0.407,-0.626l-0.402,-0.634l-0.398,-0.643l-0.392,-0.651l-0.387,-0.661l-0.382,-0.669l-0.376,-0.679l-0.372,-0.687l-0.366,-0.696l-0.361,-0.706l-0.355,-0.714l-0.35,-0.724l-0.344,-0.733l-0.339,-0.742l-0.333,-0.751l-0.327,-0.76l-0.321,-0.77l-0.316,-0.78l-0.31,-0.788l-0.303,-0.799l-0.298,-0.807l-0.292,-0.818l-0.285,-0.827l-0.28,-0.836l-0.273,-0.846l-0.267,-0.856l-0.26,-0.866l-0.254,-0.876l-0.248,-0.885l-0.241,-0.895l-0.234,-0.906l-0.228,-0.915l-0.221,-0.925l-0.214,-0.935l-0.207,-0.946l-0.201,-0.955l-0.193,-0.966l-0.187,-0.976l-0.179,-0.987l-0.172,-0.996l-0.165,-1.007l-0.158,-1.018l-0.151,-1.027l-0.143,-1.039l-0.136,-1.049l-0.128,-1.059l-0.121,-1.07l-0.113,-1.081l-0.105,-1.091l-0.098,-1.103l-0.09,-1.113l-0.082,-1.123l-0.075,-1.135l-0.066,-1.146l-0.058,-1.156l-0.05,-1.168l-0.042,-1.178l-0.034,-1.19l-0.026,-1.201l-0.017,-1.212l-0.009,-1.223l-0.001,-1.235l0.008,-1.245l0.016,-1.258l0.025,-1.268l0.034,-1.28l0.042,-1.291l0.051,-1.303l0.06,-1.315l0.068,-1.314l0.075,-1.304l0.082,-1.293l0.088,-1.281l0.095,-1.271l0.102,-1.259l0.109,-1.249l0.115,-1.238l0.121,-1.227l0.128,-1.217l0.135,-1.205l0.14,-1.195l0.147,-1.185l0.154,-1.174l0.159,-1.163l0.166,-1.154l0.171,-1.142l0.178,-1.132l0.183,-1.122l0.19,-1.112l0.195,-1.102l0.201,-1.091l0.207,-1.081l0.213,-1.071l0.218,-1.062l0.223,-1.051l0.229,-1.041l0.235,-1.031l0.24,-1.022l0.245,-1.011l0.251,-1.002l0.256,-0.993l0.261,-0.982l0.266,-0.973l0.271,-0.964l0.276,-0.954l0.281,-0.944l0.286,-0.935l0.29,-0.926l0.296,-0.916l0.3,-0.907l0.305,-0.898l0.309,-0.889l0.314,-0.879l0.319,-0.871l0.323,-0.861l0.327,-0.853l0.332,-0.843l0.335,-0.835l0.341,-0.825l0.344,-0.817l0.348,-0.808l0.352,-0.8l0.357,-0.791l0.36,-0.782l0.364,-0.773l0.368,-0.765l0.371,-0.757l0.376,-0.748l0.379,-0.74l0.382,-0.731l0.386,-0.723l0.39,-0.715l0.393,-0.706l0.396,-0.699l0.399,-0.69l0.403,-0.683l0.406,-0.674l0.409,-0.666l0.413,-0.659l0.415,-0.65l0.418,-0.643l0.421,-0.635l0.424,-0.627l0.427,-0.62l0.429,-0.612l0.433,-0.604l0.434,-0.597l0.438,-0.589l0.44,-0.582l0.442,-0.574l0.445,-0.567l0.447,-0.56l0.449,-0.552l0.452,-0.545l0.453,-0.539l0.456,-0.53l0.458,-0.524l0.46,-0.517l0.462,-0.51l0.464,-0.503l0.465,-0.496l0.468,-0.489l0.469,-0.483l0.471,-0.475l0.472,-0.469l0.474,-0.462l0.475,-0.456l0.477,-0.449l0.478,-0.443l0.48,-0.436l0.481,-0.43l0.482,-0.423l0.483,-0.417l0.484,-0.411l0.486,-0.404l0.486,-0.399l0.487,-0.392l0.489,-0.386l0.489,-0.38l0.489,-0.374l0.491,-0.368l0.491,-0.362l0.491,-0.356l0.493,-0.351l0.492,-0.345l0.494,-0.339l0.493,-0.333l0.494,-0.328l0.494,-0.322l0.494,-0.317l0.495,-0.311l0.494,-0.305l0.495,-0.301l0.494,-0.295l0.495,-0.289l0.494,-0.285l0.494,-0.279l0.494,-0.274l0.493,-0.269l0.493,-0.264l0.493,-0.258l0.492,-0.254l0.492,-0.249l0.491,-0.244l0.491,-0.24l0.49,-0.234l0.489,-0.23l0.488,-0.225l0.487,-0.22l0.487,-0.216l0.485,-0.211l0.484,-0.207l0.484,-0.202l0.482,-0.198l0.481,-0.194l0.479,-0.189l0.479,-0.185l0.477,-0.181l0.475,-0.176l0.474,-0.173l0.473,-0.168l0.471,-0.164l0.469,-0.161l0.467,-0.156l0.466,-0.152l0.926,-0.294l0.918,-0.278l0.91,-0.264l0.901,-0.25l0.892,-0.236l0.883,-0.222l0.873,-0.209l0.862,-0.196l0.851,-0.184l0.839,-0.172l0.828,-0.16l0.816,-0.149l0.803,-0.138l0.79,-0.128l0.776,-0.117l0.762,-0.108l0.747,-0.098l0.733,-0.089l0.717,-0.081l0.701,-0.072l0.685,-0.064l0.668,-0.057l0.651,-0.05l0.633,-0.043l0.615,-0.037l0.596,-0.03l0.577,-0.025l0.558,-0.02l0.538,-0.015l0.518,-0.01l0.496,-0.006l0.476,-0.002l0.453,0.001Zm-0.893,4.168l-0.466,0.005l-0.486,0.01l-0.505,0.014l-0.525,0.018l-0.544,0.024l-0.563,0.029l-0.581,0.034l-0.598,0.041l-0.614,0.047l-0.632,0.054l-0.648,0.061l-0.664,0.068l-0.679,0.076l-0.693,0.085l-0.708,0.093l-0.722,0.102l-0.736,0.111l-0.748,0.121l-0.761,0.131l-0.772,0.141l-0.785,0.152l-0.796,0.163l-0.806,0.174l-0.817,0.186l-0.826,0.198l-0.836,0.21l-0.844,0.223l-0.854,0.237l-0.861,0.249l-0.869,0.264l-0.882,0.28l-0.435,0.142l-0.442,0.148l-0.444,0.151l-0.445,0.156l-0.446,0.159l-0.448,0.163l-0.45,0.167l-0.451,0.17l-0.452,0.175l-0.453,0.179l-0.454,0.183l-0.456,0.187l-0.456,0.191l-0.458,0.195l-0.458,0.2l-0.46,0.203l-0.46,0.208l-0.46,0.213l-0.462,0.217l-0.463,0.221l-0.462,0.226l-0.464,0.23l-0.464,0.235l-0.464,0.24l-0.465,0.244l-0.465,0.248l-0.465,0.254l-0.466,0.259l-0.466,0.263l-0.466,0.268l-0.467,0.273l-0.466,0.278l-0.466,0.284l-0.466,0.288l-0.466,0.293l-0.467,0.299l-0.465,0.303l-0.466,0.309l-0.465,0.314l-0.465,0.32l-0.465,0.325l-0.463,0.33l-0.464,0.337l-0.463,0.341l-0.463,0.347l-0.461,0.353l-0.462,0.358l-0.46,0.364l-0.46,0.37l-0.458,0.376l-0.458,0.382l-0.457,0.387l-0.456,0.394l-0.455,0.399l-0.454,0.406l-0.453,0.411l-0.451,0.418l-0.451,0.425l-0.449,0.43l-0.448,0.437l-0.446,0.443l-0.445,0.449l-0.443,0.456l-0.442,0.463l-0.44,0.469l-0.439,0.476l-0.438,0.483l-0.435,0.489l-0.433,0.496l-0.432,0.503l-0.43,0.51l-0.428,0.516l-0.426,0.524l-0.424,0.531l-0.422,0.538l-0.42,0.545l-0.417,0.552l-0.416,0.56l-0.413,0.567l-0.411,0.574l-0.408,0.582l-0.406,0.59l-0.403,0.596l-0.401,0.605l-0.399,0.612l-0.395,0.62l-0.393,0.627l-0.39,0.636l-0.388,0.643l-0.384,0.651l-0.382,0.66l-0.379,0.667l-0.375,0.675l-0.373,0.684l-0.369,0.692l-0.366,0.7l-0.363,0.708l-0.36,0.717l-0.356,0.725l-0.353,0.734l-0.349,0.742l-0.346,0.751l-0.342,0.759l-0.338,0.768l-0.335,0.777l-0.331,0.786l-0.327,0.794l-0.324,0.804l-0.319,0.812l-0.315,0.822l-0.312,0.83l-0.307,0.84l-0.303,0.849l-0.299,0.858l-0.294,0.867l-0.29,0.877l-0.286,0.886l-0.281,0.895l-0.277,0.905l-0.272,0.915l-0.268,0.924l-0.262,0.933l-0.258,0.944l-0.253,0.953l-0.249,0.963l-0.243,0.973l-0.238,0.983l-0.233,0.992l-0.228,1.003l-0.223,1.013l-0.218,1.022l-0.212,1.033l-0.207,1.044l-0.202,1.053l-0.196,1.064l-0.19,1.074l-0.185,1.084l-0.179,1.095l-0.173,1.105l-0.168,1.116l-0.162,1.126l-0.155,1.138l-0.15,1.147l-0.144,1.159l-0.138,1.169l-0.131,1.18l-0.126,1.191l-0.119,1.202l-0.113,1.213l-0.106,1.224l-0.1,1.235l-0.093,1.246l-0.087,1.257l-0.08,1.269l-0.073,1.279l-0.067,1.291l-0.059,1.288l-0.05,1.277l-0.041,1.264l-0.033,1.253l-0.025,1.241l-0.016,1.229l-0.007,1.217l0,1.206l0.009,1.195l0.017,1.183l0.025,1.171l0.033,1.16l0.041,1.148l0.049,1.137l0.057,1.126l0.064,1.114l0.072,1.104l0.08,1.092l0.088,1.08l0.095,1.07l0.102,1.059l0.11,1.047l0.116,1.037l0.125,1.026l0.131,1.014l0.138,1.004l0.146,0.993l0.152,0.982l0.16,0.972l0.166,0.961l0.172,0.95l0.18,0.94l0.186,0.929l0.193,0.918l0.199,0.908l0.206,0.898l0.212,0.887l0.218,0.877l0.224,0.867l0.231,0.857l0.236,0.846l0.243,0.836l0.248,0.827l0.255,0.816l0.26,0.806l0.266,0.796l0.272,0.787l0.277,0.777l0.282,0.767l0.289,0.757l0.293,0.748l0.299,0.738l0.304,0.728l0.31,0.719l0.314,0.71l0.32,0.7l0.325,0.692l0.329,0.681l0.335,0.673l0.339,0.663l0.344,0.655l0.349,0.645l0.353,0.637l0.359,0.628l0.362,0.618l0.367,0.61l0.372,0.602l0.375,0.592l0.381,0.585l0.384,0.575l0.388,0.567l0.393,0.559l0.397,0.551l0.401,0.542l0.405,0.534l0.408,0.526l0.413,0.517l0.416,0.51l0.421,0.502l0.424,0.494l0.427,0.486l0.431,0.478l0.435,0.47l0.439,0.463l0.442,0.455l0.445,0.448l0.449,0.44l0.452,0.433l0.455,0.425l0.459,0.418l0.462,0.41l0.466,0.404l0.468,0.396l0.471,0.389l0.475,0.382l0.478,0.375l0.48,0.368l0.484,0.362l0.486,0.354l0.49,0.348l0.492,0.34l0.495,0.334l0.498,0.328l0.5,0.321l0.503,0.314l0.506,0.307l0.508,0.301l0.511,0.295l0.513,0.288l0.516,0.282l0.518,0.276l0.521,0.269l0.523,0.263l0.525,0.257l0.527,0.25l0.53,0.245l0.532,0.238l0.534,0.233l0.536,0.226l0.538,0.22l0.54,0.215l0.541,0.208l0.544,0.203l0.546,0.197l0.547,0.191l0.549,0.185l0.551,0.179l0.552,0.174l0.554,0.168l0.555,0.163l0.557,0.157l0.559,0.151l0.559,0.146l0.562,0.14l0.561,0.135l0.564,0.13l0.565,0.124l0.565,0.118l0.567,0.114l0.568,0.108l0.568,0.103l0.57,0.097l0.57,0.093l0.571,0.087l0.572,0.082l0.573,0.077l0.573,0.072l0.573,0.067l0.575,0.063l0.574,0.057l0.574,0.052l0.576,0.047l0.575,0.043l0.576,0.038l0.575,0.033l0.576,0.028l0.576,0.023l0.576,0.019l0.575,0.014l0.575,0.01l0.575,0.005l0.575,0.001l0.575,-0.004l0.573,-0.008l0.574,-0.013l0.573,-0.017l0.572,-0.021l0.572,-0.026l0.57,-0.03l0.571,-0.034l0.569,-0.038l0.568,-0.043l0.568,-0.046l0.566,-0.051l0.565,-0.055l0.564,-0.058l0.562,-0.063l0.562,-0.066l0.56,-0.07l0.558,-0.074l0.558,-0.078l0.555,-0.082l0.554,-0.085l0.553,-0.089l0.55,-0.092l0.549,-0.096l0.546,-0.1l0.545,-0.103l0.543,-0.107l0.541,-0.11l0.539,-0.113l0.536,-0.117l0.535,-0.12l0.531,-0.123l0.53,-0.127l0.527,-0.129l0.524,-0.133l0.523,-0.135l0.519,-0.139l0.516,-0.142l0.515,-0.145l0.511,-0.147l0.508,-0.15l0.505,-0.154l0.502,-0.156l0.499,-0.158l0.496,-0.162l0.492,-0.164l0.49,-0.166l0.486,-0.169l0.482,-0.172l0.479,-0.174l0.476,-0.176l0.472,-0.179l0.468,-0.181l0.464,-0.183l0.461,-0.185l0.457,-0.188l0.453,-0.189l0.448,-0.192l0.445,-0.194l0.441,-0.196l0.436,-0.197l0.432,-0.199l0.427,-0.201l0.424,-0.204l0.419,-0.204l0.414,-0.206l0.409,-0.208l0.405,-0.209l0.401,-0.211l0.395,-0.213l0.39,-0.213l0.386,-0.215l0.38,-0.216l0.375,-0.217l0.37,-0.219l0.366,-0.219l0.359,-0.221l0.354,-0.221l0.349,-0.222l0.343,-0.223l0.338,-0.224l0.332,-0.224l0.326,-0.225l0.32,-0.226l0.315,-0.226l0.309,-0.226l0.302,-0.226l0.297,-0.227l0.291,-0.227l0.284,-0.227l0.277,-0.226l0.272,-0.227l0.265,-0.227l0.259,-0.226l0.499,-0.447l0.496,-0.453l0.491,-0.459l0.487,-0.465l0.484,-0.473l0.479,-0.477l0.476,-0.485l0.471,-0.49l0.468,-0.497l0.464,-0.503l0.46,-0.509l0.456,-0.515l0.452,-0.521l0.448,-0.528l0.444,-0.533l0.44,-0.539l0.437,-0.545l0.432,-0.551l0.429,-0.557l0.425,-0.563l0.421,-0.569l0.417,-0.575l0.413,-0.58l0.409,-0.586l0.406,-0.592l0.401,-0.598l0.398,-0.603l0.394,-0.609l0.389,-0.614l0.386,-0.62l0.383,-0.626l0.378,-0.631l0.374,-0.636l0.371,-0.642l0.366,-0.647l0.363,-0.653l0.359,-0.658l0.355,-0.663l0.351,-0.669l0.347,-0.674l0.344,-0.678l0.339,-0.684l0.336,-0.69l0.332,-0.694l0.328,-0.699l0.324,-0.704l0.32,-0.709l0.316,-0.714l0.313,-0.719l0.308,-0.724l0.305,-0.729l0.301,-0.733l0.297,-0.738l0.293,-0.743l0.289,-0.747l0.286,-0.752l0.282,-0.757l0.277,-0.761l0.274,-0.765l0.27,-0.77l0.267,-0.774l0.262,-0.779l0.259,-0.783l0.254,-0.788l0.251,-0.791l0.247,-0.796l0.244,-0.8l0.239,-0.804l0.236,-0.808l0.231,-0.813l0.228,-0.816l0.225,-0.82l0.22,-0.824l0.217,-0.828l0.212,-0.832l0.209,-0.836l0.206,-0.839l0.201,-0.843l0.198,-0.847l0.194,-0.85l0.19,-0.854l0.186,-0.858l0.183,-0.861l0.179,-0.865l0.175,-0.868l0.171,-0.871l0.168,-0.875l0.164,-0.878l0.16,-0.881l0.157,-0.885l0.152,-0.887l0.149,-0.891l0.146,-0.894l0.141,-0.897l0.138,-0.901l0.134,-0.903l0.131,-0.906l0.127,-0.909l0.123,-0.911l0.12,-0.915l0.116,-0.917l0.112,-0.92l0.108,-0.923l0.105,-0.926l0.102,-0.928l0.097,-0.931l0.094,-0.933l0.091,-0.936l0.087,-0.938l0.083,-0.94l0.08,-0.943l0.076,-0.946l0.072,-0.947l0.069,-0.95l0.065,-0.952l0.062,-0.954l0.058,-0.957l0.055,-0.958l0.051,-0.961l0.048,-0.962l0.044,-0.965l0.04,-0.966l0.037,-0.968l0.034,-0.97l0.03,-0.972l0.026,-0.974l0.023,-0.975l0.02,-0.974l0.012,-0.87l0.007,-0.866l0,-0.865l-0.006,-0.865l-0.012,-0.863l-0.018,-0.863l-0.025,-0.861l-0.031,-0.86l-0.038,-0.859l-0.043,-0.858l-0.05,-0.856l-0.057,-0.854l-0.062,-0.853l-0.07,-0.85l-0.075,-0.849l-0.082,-0.847l-0.089,-0.845l-0.095,-0.843l-0.101,-0.841l-0.108,-0.838l-0.115,-0.835l-0.121,-0.834l-0.127,-0.83l-0.135,-0.828l-0.14,-0.825l-0.148,-0.822l-0.154,-0.818l-0.16,-0.816l-0.167,-0.813l-0.174,-0.809l-0.181,-0.806l-0.187,-0.802l-0.194,-0.799l-0.201,-0.795l-0.207,-0.792l-0.214,-0.787l-0.221,-0.783l-0.227,-0.78l-0.235,-0.775l-0.241,-0.771l-0.248,-0.767l-0.254,-0.762l-0.262,-0.758l-0.268,-0.753l-0.275,-0.749l-0.282,-0.744l-0.289,-0.738l-0.296,-0.734l-0.302,-0.729l-0.309,-0.724l-0.317,-0.719l-0.323,-0.713l-0.33,-0.708l-0.337,-0.702l-0.344,-0.697l-0.351,-0.691l-0.357,-0.686l-0.365,-0.68l-0.372,-0.674l-0.378,-0.668l-0.386,-0.661l-0.393,-0.656l-0.399,-0.65l-0.407,-0.643l-0.414,-0.638l-0.42,-0.63l-0.428,-0.624l-0.435,-0.618l-0.442,-0.611l-0.449,-0.604l-0.456,-0.598l-0.463,-0.591l-0.471,-0.584l-0.477,-0.577l-0.485,-0.569l-0.492,-0.563l-0.499,-0.556l-0.506,-0.548l-0.514,-0.541l-0.521,-0.534l-0.528,-0.526l-0.536,-0.519l-0.543,-0.511l-0.551,-0.504l-0.558,-0.496l-0.565,-0.488l-0.573,-0.481l-0.581,-0.473l-0.588,-0.464l-0.595,-0.457l-0.604,-0.449l-0.611,-0.44l-0.619,-0.433l-0.627,-0.424l-0.635,-0.415l-0.642,-0.408l-0.651,-0.399l-0.658,-0.39l-0.674,-0.386l-0.329,-0.184l-0.338,-0.185l-0.341,-0.184l-0.343,-0.181l-0.344,-0.179l-0.347,-0.177l-0.348,-0.174l-0.351,-0.172l-0.353,-0.171l-0.355,-0.167l-0.357,-0.166l-0.359,-0.163l-0.361,-0.161l-0.363,-0.159l-0.366,-0.156l-0.368,-0.154l-0.369,-0.152l-0.372,-0.15l-0.374,-0.147l-0.377,-0.144l-0.379,-0.143l-0.38,-0.14l-0.383,-0.137l-0.384,-0.135l-0.388,-0.133l-0.39,-0.131l-0.391,-0.128l-0.394,-0.125l-0.396,-0.123l-0.398,-0.121l-0.401,-0.118l-0.403,-0.116l-0.405,-0.113l-0.407,-0.11l-0.41,-0.108l-0.411,-0.106l-0.415,-0.103l-0.416,-0.1l-0.419,-0.098l-0.421,-0.096l-0.423,-0.092l-0.426,-0.09l-0.428,-0.088l-0.431,-0.084l-0.432,-0.082l-0.435,-0.08l-0.438,-0.077l-0.439,-0.074l-0.443,-0.071l-0.444,-0.069l-0.447,-0.066l-0.449,-0.063l-0.452,-0.06l-0.454,-0.058l-0.456,-0.055l-0.459,-0.052l-0.462,-0.049l-0.47,-0.047l-0.199,-0.02l-0.235,-0.019l-0.346,-0.025l-0.449,-0.027l-0.55,-0.025l-0.644,-0.022l-0.745,-0.015l-0.395,-0.004l-0.423,-0.001l-0.445,0.003Z" style="fill:#fff;"/><path d="M645.911,357.227c0,0 -21.958,-140.189 -21.958,-180.94c0,-40.75 0.072,-97.995 64.108,-163.971c0,0 7.762,74.709 12.613,115.459c4.852,40.75 -6.791,229.452 -6.791,229.452l-47.972,0Z" style="fill:#2cabe3;"/><path d="M694.757,357.227c-15.809,36.011 -7.026,63.239 1.757,109.789c8.783,46.551 11.921,287.246 10.54,324.975c-0.941,25.695 -4.117,121.701 -4.117,172.479c0,50.777 13.778,170.777 13.778,170.777c-14.879,21.144 -30.92,23.561 -46.381,23.561c-15.46,0 -31.502,-2.417 -46.381,-23.561c0,0 13.779,-120 13.779,-170.777c0,-50.778 -3.176,-146.784 -4.117,-172.479c-1.382,-37.729 1.756,-278.424 10.539,-324.975c8.784,-46.55 17.567,-73.778 1.757,-109.789l48.846,0Z" style="fill:#2cabe3;"/><path d="M695.779,353.188l0.958,0.373l0.838,0.597l0.667,0.784l0.453,0.924l0.214,1.006l-0.04,1.028l-0.29,0.988l-0.36,0.828l-0.344,0.81l-0.336,0.806l-0.328,0.803l-0.318,0.8l-0.31,0.797l-0.302,0.794l-0.293,0.791l-0.285,0.788l-0.277,0.785l-0.269,0.782l-0.261,0.78l-0.253,0.777l-0.245,0.775l-0.237,0.773l-0.229,0.77l-0.222,0.768l-0.214,0.767l-0.207,0.764l-0.199,0.762l-0.192,0.761l-0.185,0.759l-0.178,0.758l-0.17,0.756l-0.164,0.754l-0.156,0.754l-0.15,0.753l-0.143,0.751l-0.136,0.751l-0.13,0.749l-0.123,0.749l-0.116,0.748l-0.11,0.748l-0.104,0.747l-0.097,0.747l-0.091,0.747l-0.085,0.746l-0.079,0.747l-0.072,0.747l-0.067,0.747l-0.061,0.747l-0.055,0.747l-0.049,0.748l-0.044,0.749l-0.037,0.749l-0.033,0.75l-0.026,0.75l-0.022,0.752l-0.016,0.753l-0.01,0.754l-0.005,0.755l0,0.756l0.005,0.758l0.01,0.759l0.015,0.761l0.02,0.763l0.026,0.764l0.03,0.767l0.034,0.768l0.04,0.77l0.044,0.772l0.049,0.775l0.053,0.777l0.058,0.779l0.062,0.782l0.067,0.784l0.071,0.787l0.075,0.789l0.079,0.792l0.084,0.796l0.087,0.798l0.091,0.801l0.096,0.804l0.099,0.808l0.103,0.811l0.107,0.814l0.11,0.817l0.114,0.818l0.239,1.656l0.252,1.668l0.265,1.684l0.278,1.699l0.29,1.716l0.302,1.734l0.312,1.752l0.323,1.77l0.332,1.79l0.342,1.809l0.351,1.829l0.359,1.851l0.366,1.871l0.754,3.813l0.777,3.904l0.796,4.003l0.811,4.104l0.409,2.094l0.412,2.12l0.412,2.149l0.414,2.181l0.107,0.577l0.107,0.597l0.106,0.614l0.104,0.629l0.104,0.645l0.104,0.666l0.204,1.364l0.201,1.432l0.198,1.495l0.196,1.556l0.194,1.616l0.191,1.677l0.188,1.736l0.186,1.794l0.184,1.851l0.182,1.907l0.18,1.962l0.177,2.016l0.176,2.07l0.173,2.122l0.171,2.173l0.169,2.222l0.167,2.272l0.165,2.32l0.162,2.366l0.161,2.411l0.159,2.457l0.157,2.499l0.154,2.542l0.153,2.584l0.15,2.623l0.149,2.662l0.147,2.701l0.144,2.736l0.143,2.773l0.14,2.807l0.139,2.841l0.137,2.872l0.135,2.904l0.132,2.934l0.131,2.964l0.256,6.007l0.248,6.11l0.24,6.202l0.232,6.287l0.225,6.362l0.217,6.428l0.21,6.484l0.201,6.533l0.195,6.571l0.186,6.6l0.179,6.622l0.172,6.633l0.164,6.635l0.157,6.629l0.149,6.613l0.142,6.588l0.134,6.554l0.127,6.512l0.12,6.46l0.113,6.398l0.105,6.329l0.098,6.249l0.091,6.161l0.083,6.064l0.077,5.957l0.069,5.842l0.062,5.717l0.055,5.584l0.048,5.441l0.041,5.289l0.034,5.128l0.027,4.959l0.02,4.78l0.013,4.592l0.007,4.395l-0.001,4.19l-0.008,3.974l-0.014,3.751l-0.021,3.519l-0.028,3.277l-0.035,3.028l-0.042,2.769l-0.048,2.501l-0.027,1.152l-0.029,1.08l-0.03,1.011l-0.032,0.933l-0.201,5.615l-0.246,7.087l-0.282,8.398l-0.311,9.537l-0.331,10.509l-0.171,5.565l-0.173,5.744l-0.175,5.903l-0.174,6.039l-0.174,6.155l-0.172,6.249l-0.17,6.322l-0.165,6.375l-0.161,6.406l-0.155,6.415l-0.149,6.404l-0.14,6.371l-0.132,6.317l-0.122,6.242l-0.112,6.146l-0.1,6.028l-0.087,5.89l-0.074,5.73l-0.031,2.797l-0.027,2.75l-0.024,2.699l-0.02,2.645l-0.015,2.59l-0.011,2.53l-0.007,2.47l-0.003,2.402l0.003,1.189l0.007,1.211l0.012,1.236l0.017,1.261l0.022,1.285l0.026,1.308l0.031,1.331l0.036,1.353l0.039,1.375l0.044,1.395l0.049,1.416l0.052,1.436l0.057,1.456l0.06,1.471l0.133,3.004l0.148,3.07l0.162,3.133l0.177,3.192l0.19,3.248l0.202,3.297l0.214,3.343l0.226,3.385l0.236,3.422l0.247,3.454l0.256,3.483l0.264,3.506l0.273,3.527l0.281,3.541l0.288,3.552l0.293,3.559l0.3,3.561l0.305,3.558l0.309,3.552l0.313,3.541l0.316,3.526l0.318,3.506l0.321,3.482l0.322,3.454l0.322,3.421l0.322,3.384l0.322,3.341l0.64,6.545l0.629,6.327l0.614,6.074l0.594,5.787l0.569,5.466l0.538,5.11l0.503,4.718l0.463,4.293l0.418,3.832l0.367,3.338l0.311,2.807l0.437,3.89l0.154,1.357l-0.008,1.011l-0.252,0.98l-0.481,0.89l-0.357,0.504l-0.367,0.51l-0.368,0.503l-0.368,0.496l-0.369,0.49l-0.37,0.483l-0.371,0.477l-0.372,0.471l-0.372,0.464l-0.373,0.457l-0.374,0.451l-0.374,0.446l-0.376,0.439l-0.376,0.432l-0.377,0.426l-0.377,0.421l-0.379,0.414l-0.379,0.408l-0.379,0.402l-0.381,0.397l-0.381,0.39l-0.383,0.384l-0.382,0.379l-0.384,0.372l-0.384,0.367l-0.384,0.361l-0.386,0.356l-0.386,0.349l-0.387,0.344l-0.387,0.338l-0.389,0.333l-0.389,0.328l-0.389,0.321l-0.39,0.316l-0.391,0.311l-0.391,0.306l-0.392,0.299l-0.392,0.295l-0.393,0.289l-0.393,0.284l-0.394,0.279l-0.395,0.274l-0.395,0.268l-0.395,0.263l-0.396,0.259l-0.396,0.253l-0.397,0.248l-0.398,0.243l-0.397,0.238l-0.398,0.234l-0.398,0.228l-0.399,0.224l-0.398,0.219l-0.4,0.214l-0.399,0.209l-0.4,0.205l-0.4,0.2l-0.399,0.196l-0.401,0.191l-0.401,0.186l-0.4,0.182l-0.401,0.178l-0.4,0.173l-0.401,0.169l-0.401,0.165l-0.401,0.161l-0.401,0.156l-0.401,0.152l-0.401,0.148l-0.401,0.144l-0.4,0.14l-0.401,0.136l-0.401,0.133l-0.4,0.128l-0.4,0.124l-0.4,0.121l-0.4,0.118l-0.408,0.116l-0.79,0.214l-0.797,0.202l-0.797,0.189l-0.794,0.176l-0.794,0.164l-0.792,0.151l-0.79,0.139l-0.788,0.128l-0.787,0.117l-0.784,0.107l-0.783,0.097l-0.78,0.087l-0.778,0.078l-0.776,0.069l-0.773,0.061l-0.771,0.054l-0.768,0.046l-0.766,0.039l-0.764,0.032l-0.76,0.026l-0.758,0.021l-0.755,0.015l-0.752,0.01l-0.75,0.006l-0.747,0.002l-0.747,-0.002l-0.749,-0.006l-0.752,-0.01l-0.755,-0.015l-0.758,-0.021l-0.761,-0.026l-0.763,-0.032l-0.766,-0.039l-0.768,-0.046l-0.771,-0.054l-0.774,-0.061l-0.775,-0.069l-0.778,-0.078l-0.781,-0.087l-0.782,-0.097l-0.785,-0.107l-0.786,-0.117l-0.789,-0.128l-0.79,-0.139l-0.792,-0.151l-0.793,-0.164l-0.795,-0.176l-0.796,-0.189l-0.798,-0.202l-0.79,-0.214l-0.407,-0.116l-0.401,-0.118l-0.4,-0.121l-0.399,-0.124l-0.401,-0.128l-0.401,-0.133l-0.401,-0.136l-0.4,-0.14l-0.4,-0.144l-0.402,-0.148l-0.4,-0.152l-0.401,-0.156l-0.402,-0.161l-0.4,-0.165l-0.401,-0.169l-0.401,-0.173l-0.4,-0.178l-0.401,-0.182l-0.4,-0.186l-0.401,-0.191l-0.4,-0.196l-0.4,-0.2l-0.399,-0.205l-0.4,-0.209l-0.399,-0.214l-0.399,-0.219l-0.398,-0.224l-0.399,-0.228l-0.398,-0.234l-0.397,-0.238l-0.397,-0.243l-0.397,-0.248l-0.396,-0.253l-0.396,-0.259l-0.396,-0.263l-0.395,-0.268l-0.394,-0.274l-0.394,-0.279l-0.394,-0.284l-0.392,-0.289l-0.393,-0.295l-0.392,-0.299l-0.391,-0.306l-0.391,-0.311l-0.39,-0.316l-0.389,-0.322l-0.389,-0.327l-0.388,-0.333l-0.387,-0.338l-0.387,-0.344l-0.386,-0.349l-0.386,-0.356l-0.385,-0.361l-0.384,-0.367l-0.383,-0.372l-0.383,-0.379l-0.382,-0.384l-0.381,-0.39l-0.381,-0.397l-0.38,-0.402l-0.379,-0.408l-0.378,-0.414l-0.378,-0.421l-0.377,-0.426l-0.376,-0.432l-0.375,-0.439l-0.374,-0.445l-0.374,-0.452l-0.373,-0.457l-0.373,-0.465l-0.371,-0.47l-0.371,-0.477l-0.37,-0.483l-0.369,-0.49l-0.369,-0.497l-0.367,-0.502l-0.367,-0.51l-0.358,-0.504l-0.48,-0.89l-0.252,-0.98l-0.009,-1.011l0.155,-1.357l0.436,-3.89l0.312,-2.807l0.367,-3.338l0.417,-3.832l0.463,-4.293l0.504,-4.719l0.538,-5.109l0.569,-5.466l0.594,-5.787l0.614,-6.074l0.629,-6.327l0.639,-6.545l0.322,-3.341l0.322,-3.384l0.323,-3.421l0.322,-3.454l0.32,-3.482l0.319,-3.506l0.316,-3.526l0.313,-3.541l0.309,-3.552l0.305,-3.558l0.299,-3.561l0.294,-3.559l0.288,-3.552l0.28,-3.541l0.273,-3.527l0.265,-3.506l0.256,-3.483l0.247,-3.454l0.236,-3.422l0.226,-3.385l0.214,-3.343l0.202,-3.297l0.19,-3.248l0.176,-3.192l0.163,-3.133l0.148,-3.07l0.133,-3.004l0.06,-1.472l0.057,-1.455l0.052,-1.436l0.048,-1.416l0.044,-1.395l0.04,-1.375l0.035,-1.353l0.031,-1.331l0.026,-1.308l0.022,-1.285l0.017,-1.261l0.012,-1.236l0.008,-1.212l0.002,-1.188l-0.002,-2.402l-0.007,-2.47l-0.011,-2.53l-0.016,-2.59l-0.019,-2.645l-0.024,-2.699l-0.028,-2.75l-0.031,-2.797l-0.073,-5.73l-0.088,-5.89l-0.1,-6.028l-0.111,-6.146l-0.122,-6.242l-0.132,-6.317l-0.141,-6.371l-0.148,-6.404l-0.155,-6.415l-0.161,-6.406l-0.166,-6.375l-0.169,-6.322l-0.172,-6.249l-0.174,-6.155l-0.175,-6.039l-0.174,-5.903l-0.173,-5.744l-0.171,-5.565l-0.332,-10.509l-0.31,-9.537l-0.282,-8.398l-0.246,-7.087l-0.201,-5.615l-0.032,-0.933l-0.031,-1.011l-0.028,-1.08l-0.027,-1.152l-0.049,-2.501l-0.041,-2.769l-0.035,-3.028l-0.028,-3.277l-0.021,-3.519l-0.015,-3.751l-0.007,-3.974l-0.001,-4.19l0.006,-4.395l0.013,-4.592l0.02,-4.78l0.027,-4.959l0.034,-5.128l0.041,-5.289l0.048,-5.441l0.055,-5.584l0.062,-5.717l0.07,-5.842l0.076,-5.957l0.084,-6.064l0.091,-6.161l0.098,-6.249l0.105,-6.329l0.112,-6.398l0.12,-6.46l0.127,-6.512l0.135,-6.554l0.142,-6.588l0.149,-6.613l0.156,-6.629l0.165,-6.635l0.171,-6.633l0.179,-6.622l0.187,-6.6l0.194,-6.571l0.202,-6.533l0.209,-6.484l0.217,-6.428l0.225,-6.362l0.233,-6.287l0.24,-6.202l0.248,-6.11l0.255,-6.007l0.131,-2.964l0.133,-2.934l0.135,-2.904l0.136,-2.872l0.139,-2.841l0.141,-2.807l0.142,-2.773l0.145,-2.736l0.147,-2.701l0.148,-2.662l0.151,-2.623l0.152,-2.584l0.155,-2.542l0.157,-2.499l0.158,-2.457l0.161,-2.411l0.163,-2.366l0.165,-2.32l0.167,-2.272l0.169,-2.222l0.171,-2.173l0.173,-2.122l0.175,-2.069l0.178,-2.017l0.179,-1.962l0.182,-1.907l0.184,-1.851l0.186,-1.794l0.189,-1.736l0.191,-1.677l0.193,-1.616l0.196,-1.556l0.199,-1.495l0.201,-1.432l0.203,-1.364l0.104,-0.666l0.104,-0.645l0.105,-0.629l0.106,-0.614l0.106,-0.597l0.107,-0.577l0.414,-2.181l0.413,-2.149l0.411,-2.12l0.41,-2.094l0.81,-4.104l0.797,-4.003l0.777,-3.904l0.754,-3.813l0.366,-1.871l0.359,-1.851l0.35,-1.829l0.342,-1.809l0.333,-1.79l0.323,-1.77l0.312,-1.752l0.301,-1.733l0.29,-1.717l0.278,-1.699l0.265,-1.684l0.253,-1.668l0.239,-1.656l0.113,-0.818l0.111,-0.817l0.107,-0.815l0.103,-0.81l0.099,-0.808l0.095,-0.804l0.092,-0.801l0.087,-0.798l0.083,-0.796l0.08,-0.792l0.075,-0.79l0.071,-0.786l0.066,-0.784l0.063,-0.782l0.057,-0.779l0.054,-0.777l0.049,-0.775l0.044,-0.772l0.039,-0.77l0.035,-0.768l0.03,-0.767l0.025,-0.764l0.02,-0.763l0.016,-0.761l0.01,-0.759l0.005,-0.758l0,-0.756l-0.005,-0.755l-0.011,-0.754l-0.016,-0.753l-0.021,-0.752l-0.027,-0.751l-0.032,-0.75l-0.038,-0.749l-0.043,-0.748l-0.05,-0.748l-0.055,-0.747l-0.06,-0.748l-0.067,-0.746l-0.073,-0.747l-0.079,-0.747l-0.084,-0.746l-0.092,-0.747l-0.097,-0.747l-0.103,-0.747l-0.11,-0.748l-0.117,-0.748l-0.123,-0.749l-0.129,-0.75l-0.136,-0.75l-0.143,-0.751l-0.15,-0.753l-0.157,-0.754l-0.163,-0.754l-0.171,-0.756l-0.177,-0.758l-0.185,-0.759l-0.192,-0.761l-0.2,-0.762l-0.206,-0.765l-0.215,-0.766l-0.221,-0.768l-0.23,-0.77l-0.237,-0.773l-0.245,-0.775l-0.253,-0.777l-0.26,-0.78l-0.269,-0.782l-0.277,-0.785l-0.285,-0.788l-0.294,-0.791l-0.301,-0.794l-0.31,-0.797l-0.319,-0.8l-0.327,-0.803l-0.336,-0.806l-0.345,-0.81l-0.359,-0.828l-0.291,-0.988l-0.039,-1.028l0.213,-1.006l0.454,-0.924l0.666,-0.784l0.838,-0.597l0.959,-0.373l1.021,-0.127l48.846,0l1.022,0.127Zm-49.868,4.039l0.366,0.843l0.357,0.839l0.349,0.836l0.339,0.833l0.331,0.831l0.322,0.827l0.313,0.825l0.305,0.822l0.297,0.82l0.288,0.817l0.28,0.814l0.271,0.813l0.264,0.81l0.255,0.808l0.248,0.806l0.239,0.803l0.231,0.802l0.224,0.8l0.216,0.799l0.208,0.796l0.201,0.795l0.193,0.794l0.186,0.792l0.178,0.79l0.171,0.79l0.164,0.788l0.157,0.787l0.149,0.786l0.143,0.785l0.135,0.784l0.129,0.783l0.121,0.783l0.115,0.782l0.109,0.781l0.101,0.781l0.096,0.78l0.088,0.78l0.083,0.78l0.076,0.78l0.069,0.78l0.064,0.78l0.057,0.779l0.051,0.78l0.046,0.78l0.039,0.781l0.034,0.781l0.028,0.781l0.022,0.782l0.016,0.783l0.011,0.783l0.006,0.784l0,0.785l-0.006,0.786l-0.01,0.787l-0.016,0.788l-0.021,0.79l-0.026,0.79l-0.031,0.792l-0.036,0.794l-0.041,0.795l-0.045,0.796l-0.051,0.798l-0.054,0.8l-0.06,0.802l-0.064,0.804l-0.068,0.806l-0.073,0.808l-0.077,0.81l-0.082,0.812l-0.085,0.815l-0.09,0.817l-0.093,0.82l-0.098,0.822l-0.101,0.824l-0.105,0.828l-0.109,0.83l-0.113,0.834l-0.116,0.836l-0.242,1.681l-0.257,1.695l-0.269,1.708l-0.281,1.722l-0.294,1.737l-0.305,1.753l-0.315,1.768l-0.325,1.786l-0.335,1.802l-0.345,1.821l-0.352,1.839l-0.36,1.859l-0.368,1.878l-0.755,3.82l-0.778,3.907l-0.796,3.999l-0.809,4.098l-0.408,2.086l-0.41,2.114l-0.411,2.14l-0.412,2.168l-0.102,0.555l-0.102,0.572l-0.102,0.589l-0.101,0.607l-0.101,0.624l-0.1,0.641l-0.198,1.333l-0.197,1.399l-0.195,1.465l-0.192,1.529l-0.19,1.593l-0.189,1.654l-0.186,1.715l-0.185,1.775l-0.182,1.833l-0.18,1.891l-0.178,1.948l-0.177,2.002l-0.174,2.057l-0.172,2.109l-0.17,2.161l-0.168,2.212l-0.166,2.261l-0.165,2.31l-0.162,2.357l-0.16,2.403l-0.158,2.448l-0.156,2.492l-0.154,2.535l-0.153,2.576l-0.15,2.617l-0.148,2.655l-0.146,2.694l-0.145,2.731l-0.142,2.767l-0.14,2.802l-0.139,2.835l-0.136,2.868l-0.135,2.899l-0.132,2.929l-0.131,2.959l-0.255,5.999l-0.248,6.102l-0.24,6.195l-0.232,6.28l-0.224,6.355l-0.217,6.421l-0.209,6.479l-0.202,6.527l-0.194,6.565l-0.187,6.596l-0.179,6.616l-0.171,6.628l-0.164,6.631l-0.157,6.624l-0.149,6.609l-0.142,6.584l-0.134,6.55l-0.127,6.507l-0.12,6.456l-0.112,6.394l-0.105,6.325l-0.098,6.245l-0.091,6.157l-0.084,6.06l-0.076,5.953l-0.069,5.838l-0.062,5.713l-0.055,5.58l-0.048,5.436l-0.041,5.285l-0.034,5.124l-0.027,4.953l-0.02,4.775l-0.013,4.586l-0.006,4.389l0,4.182l0.008,3.967l0.014,3.743l0.021,3.509l0.028,3.266l0.035,3.014l0.041,2.753l0.049,2.483l0.026,1.137l0.028,1.067l0.03,0.994l0.032,0.921l0.201,5.614l0.246,7.092l0.282,8.402l0.311,9.542l0.332,10.512l0.171,5.568l0.173,5.747l0.174,5.905l0.175,6.042l0.174,6.157l0.172,6.253l0.169,6.326l0.166,6.378l0.161,6.409l0.155,6.419l0.149,6.409l0.14,6.375l0.132,6.323l0.123,6.248l0.112,6.152l0.1,6.035l0.087,5.897l0.074,5.738l0.031,2.802l0.028,2.755l0.023,2.705l0.02,2.651l0.015,2.596l0.012,2.537l0.007,2.477l0.002,2.413l-0.003,1.203l-0.007,1.227l-0.013,1.252l-0.017,1.275l-0.022,1.299l-0.026,1.321l-0.031,1.344l-0.036,1.365l-0.04,1.386l-0.044,1.406l-0.049,1.426l-0.053,1.446l-0.057,1.465l-0.061,1.483l-0.133,3.019l-0.149,3.085l-0.163,3.148l-0.177,3.206l-0.191,3.26l-0.203,3.309l-0.215,3.354l-0.226,3.395l-0.237,3.431l-0.247,3.464l-0.257,3.491l-0.265,3.515l-0.274,3.534l-0.281,3.549l-0.288,3.559l-0.295,3.565l-0.3,3.567l-0.305,3.564l-0.31,3.558l-0.313,3.546l-0.316,3.531l-0.319,3.511l-0.321,3.487l-0.323,3.458l-0.322,3.426l-0.323,3.388l-0.322,3.347l-0.64,6.551l-0.63,6.334l-0.615,6.08l-0.595,5.794l-0.569,5.471l-0.539,5.115l-0.504,4.723l-0.463,4.298l-0.418,3.837l-0.368,3.341l-0.312,2.812l-0.437,3.895l-0.155,1.361l0.349,0.492l0.35,0.485l0.349,0.479l0.351,0.471l0.35,0.466l0.351,0.458l0.352,0.452l0.351,0.446l0.353,0.439l0.352,0.432l0.353,0.426l0.353,0.42l0.354,0.413l0.354,0.408l0.354,0.401l0.355,0.395l0.355,0.388l0.356,0.383l0.355,0.377l0.356,0.37l0.357,0.365l0.357,0.359l0.357,0.353l0.357,0.348l0.358,0.341l0.358,0.336l0.358,0.33l0.358,0.325l0.359,0.319l0.359,0.313l0.36,0.309l0.359,0.302l0.36,0.298l0.36,0.292l0.361,0.286l0.361,0.282l0.361,0.276l0.361,0.271l0.361,0.266l0.362,0.262l0.362,0.256l0.362,0.251l0.362,0.246l0.363,0.241l0.362,0.237l0.363,0.232l0.363,0.227l0.364,0.222l0.363,0.218l0.364,0.214l0.364,0.208l0.364,0.205l0.364,0.199l0.364,0.196l0.365,0.191l0.365,0.187l0.364,0.182l0.365,0.179l0.365,0.174l0.366,0.17l0.365,0.166l0.366,0.162l0.365,0.158l0.366,0.154l0.366,0.151l0.366,0.146l0.366,0.143l0.366,0.139l0.366,0.135l0.366,0.132l0.366,0.128l0.367,0.124l0.366,0.121l0.367,0.118l0.367,0.114l0.366,0.111l0.367,0.107l0.367,0.105l0.733,0.198l0.734,0.187l0.734,0.174l0.733,0.162l0.734,0.151l0.734,0.14l0.734,0.13l0.733,0.119l0.733,0.109l0.733,0.1l0.733,0.091l0.733,0.081l0.732,0.074l0.732,0.065l0.731,0.058l0.731,0.051l0.731,0.043l0.73,0.037l0.729,0.031l0.729,0.025l0.728,0.02l0.728,0.015l0.726,0.01l0.726,0.006l0.725,0.001l0.725,-0.001l0.726,-0.006l0.727,-0.01l0.727,-0.015l0.729,-0.02l0.728,-0.025l0.73,-0.031l0.73,-0.037l0.73,-0.043l0.731,-0.051l0.732,-0.058l0.732,-0.065l0.732,-0.074l0.732,-0.081l0.733,-0.091l0.733,-0.1l0.734,-0.109l0.733,-0.119l0.734,-0.13l0.733,-0.14l0.734,-0.151l0.734,-0.162l0.734,-0.174l0.733,-0.187l0.734,-0.198l0.367,-0.105l0.366,-0.107l0.367,-0.111l0.367,-0.114l0.366,-0.118l0.367,-0.121l0.366,-0.124l0.366,-0.128l0.367,-0.132l0.366,-0.135l0.366,-0.139l0.366,-0.143l0.366,-0.146l0.366,-0.151l0.365,-0.154l0.366,-0.158l0.365,-0.162l0.366,-0.166l0.365,-0.17l0.365,-0.174l0.365,-0.179l0.365,-0.182l0.365,-0.187l0.364,-0.191l0.364,-0.196l0.365,-0.199l0.364,-0.205l0.364,-0.208l0.363,-0.214l0.364,-0.218l0.363,-0.222l0.363,-0.227l0.363,-0.232l0.363,-0.237l0.362,-0.241l0.363,-0.246l0.362,-0.251l0.362,-0.256l0.361,-0.262l0.362,-0.266l0.361,-0.271l0.361,-0.276l0.361,-0.282l0.36,-0.286l0.36,-0.292l0.36,-0.298l0.36,-0.302l0.359,-0.309l0.359,-0.313l0.359,-0.319l0.359,-0.325l0.358,-0.33l0.358,-0.336l0.358,-0.341l0.357,-0.348l0.357,-0.353l0.357,-0.359l0.356,-0.365l0.356,-0.37l0.356,-0.377l0.355,-0.383l0.355,-0.388l0.355,-0.395l0.355,-0.401l0.354,-0.408l0.353,-0.413l0.354,-0.42l0.352,-0.426l0.353,-0.432l0.352,-0.439l0.352,-0.446l0.351,-0.452l0.351,-0.458l0.351,-0.466l0.35,-0.471l0.35,-0.479l0.349,-0.485l0.349,-0.492l-0.155,-1.361l-0.437,-3.895l-0.312,-2.812l-0.367,-3.341l-0.418,-3.837l-0.464,-4.298l-0.503,-4.723l-0.539,-5.115l-0.57,-5.471l-0.594,-5.794l-0.615,-6.08l-0.63,-6.334l-0.64,-6.551l-0.322,-3.347l-0.323,-3.388l-0.323,-3.426l-0.322,-3.458l-0.321,-3.487l-0.319,-3.511l-0.317,-3.531l-0.313,-3.546l-0.309,-3.558l-0.306,-3.564l-0.3,-3.567l-0.294,-3.565l-0.288,-3.559l-0.282,-3.549l-0.273,-3.534l-0.266,-3.515l-0.256,-3.491l-0.247,-3.464l-0.237,-3.431l-0.227,-3.395l-0.215,-3.354l-0.203,-3.309l-0.19,-3.26l-0.177,-3.206l-0.163,-3.148l-0.149,-3.085l-0.134,-3.019l-0.061,-1.483l-0.057,-1.465l-0.052,-1.446l-0.049,-1.426l-0.044,-1.406l-0.041,-1.386l-0.035,-1.365l-0.031,-1.344l-0.027,-1.321l-0.022,-1.299l-0.017,-1.275l-0.012,-1.252l-0.008,-1.227l-0.002,-1.203l0.002,-2.413l0.007,-2.477l0.011,-2.537l0.016,-2.596l0.019,-2.651l0.024,-2.705l0.028,-2.755l0.031,-2.802l0.074,-5.738l0.087,-5.897l0.1,-6.035l0.112,-6.152l0.122,-6.248l0.132,-6.323l0.141,-6.375l0.148,-6.409l0.156,-6.419l0.16,-6.409l0.166,-6.378l0.169,-6.326l0.173,-6.253l0.174,-6.157l0.174,-6.042l0.175,-5.905l0.173,-5.747l0.171,-5.568l0.332,-10.512l0.311,-9.542l0.282,-8.402l0.246,-7.092l0.201,-5.614l0.031,-0.921l0.03,-0.994l0.028,-1.067l0.027,-1.137l0.048,-2.483l0.042,-2.753l0.034,-3.014l0.028,-3.266l0.021,-3.509l0.015,-3.743l0.007,-3.967l0.001,-4.182l-0.006,-4.389l-0.013,-4.586l-0.02,-4.775l-0.027,-4.953l-0.034,-5.124l-0.041,-5.285l-0.048,-5.436l-0.055,-5.58l-0.062,-5.713l-0.07,-5.838l-0.076,-5.953l-0.083,-6.06l-0.091,-6.157l-0.098,-6.245l-0.105,-6.325l-0.113,-6.394l-0.119,-6.456l-0.128,-6.507l-0.134,-6.55l-0.142,-6.584l-0.149,-6.609l-0.156,-6.624l-0.164,-6.631l-0.172,-6.628l-0.179,-6.616l-0.186,-6.596l-0.194,-6.565l-0.202,-6.527l-0.209,-6.479l-0.217,-6.421l-0.225,-6.355l-0.232,-6.28l-0.24,-6.195l-0.247,-6.102l-0.256,-5.999l-0.13,-2.959l-0.133,-2.929l-0.134,-2.899l-0.137,-2.868l-0.138,-2.835l-0.14,-2.802l-0.143,-2.767l-0.144,-2.731l-0.146,-2.694l-0.149,-2.655l-0.15,-2.617l-0.152,-2.576l-0.154,-2.535l-0.156,-2.492l-0.159,-2.448l-0.16,-2.403l-0.162,-2.357l-0.164,-2.31l-0.166,-2.261l-0.168,-2.212l-0.17,-2.161l-0.173,-2.109l-0.174,-2.057l-0.176,-2.002l-0.178,-1.948l-0.181,-1.891l-0.182,-1.833l-0.184,-1.775l-0.187,-1.715l-0.188,-1.654l-0.19,-1.593l-0.193,-1.529l-0.194,-1.465l-0.197,-1.399l-0.199,-1.333l-0.1,-0.641l-0.1,-0.624l-0.101,-0.607l-0.102,-0.589l-0.102,-0.572l-0.103,-0.555l-0.412,-2.168l-0.411,-2.14l-0.41,-2.114l-0.408,-2.086l-0.809,-4.098l-0.796,-3.999l-0.777,-3.907l-0.755,-3.82l-0.368,-1.878l-0.36,-1.859l-0.353,-1.839l-0.344,-1.821l-0.335,-1.802l-0.326,-1.786l-0.315,-1.768l-0.305,-1.753l-0.293,-1.737l-0.282,-1.722l-0.269,-1.708l-0.256,-1.694l-0.243,-1.682l-0.116,-0.836l-0.112,-0.834l-0.109,-0.83l-0.105,-0.827l-0.102,-0.825l-0.097,-0.822l-0.094,-0.82l-0.089,-0.817l-0.086,-0.815l-0.081,-0.812l-0.077,-0.81l-0.073,-0.808l-0.068,-0.806l-0.064,-0.804l-0.06,-0.801l-0.055,-0.801l-0.05,-0.798l-0.046,-0.796l-0.041,-0.795l-0.035,-0.794l-0.031,-0.792l-0.026,-0.79l-0.021,-0.79l-0.016,-0.788l-0.011,-0.787l-0.005,-0.786l0,-0.785l0.005,-0.784l0.011,-0.783l0.017,-0.783l0.022,-0.782l0.028,-0.781l0.033,-0.781l0.04,-0.78l0.045,-0.781l0.051,-0.78l0.058,-0.779l0.063,-0.78l0.07,-0.78l0.076,-0.779l0.082,-0.78l0.089,-0.781l0.095,-0.78l0.102,-0.781l0.108,-0.781l0.115,-0.782l0.122,-0.783l0.128,-0.783l0.136,-0.784l0.142,-0.785l0.15,-0.786l0.156,-0.787l0.164,-0.788l0.171,-0.79l0.179,-0.79l0.185,-0.792l0.193,-0.794l0.201,-0.795l0.208,-0.796l0.216,-0.799l0.224,-0.8l0.232,-0.802l0.239,-0.803l0.247,-0.806l0.256,-0.808l0.263,-0.81l0.272,-0.812l0.28,-0.815l0.288,-0.817l0.296,-0.82l0.305,-0.822l0.314,-0.825l0.322,-0.827l0.331,-0.831l0.339,-0.833l0.348,-0.836l0.357,-0.839l0.366,-0.843l-48.846,0Z" style="fill:#fff;"/></svg>